<?xml version="1.0" encoding="UTF-8" standalone="no"?>
<svg
   version="1.1"
   x="0px"
   y="0px"
   viewBox="0 0 72 72"
   enable-background="new 0 0 1000 1000"
   xml:space="preserve"
   id="svg14"
   width="72"
   height="72"
   sodipodi:docname="nodejs.inkscape.svg"
   inkscape:version="1.1.2 (b8e25be8, 2022-02-05)"
   xmlns:inkscape="http://www.inkscape.org/namespaces/inkscape"
   xmlns:sodipodi="http://sodipodi.sourceforge.net/DTD/sodipodi-0.dtd"
   xmlns="http://www.w3.org/2000/svg"
   xmlns:svg="http://www.w3.org/2000/svg"><sodipodi:namedview
   id="namedview14"
   pagecolor="#ffffff"
   bordercolor="#666666"
   borderopacity="1.0"
   inkscape:pageshadow="2"
   inkscape:pageopacity="0.0"
   inkscape:pagecheckerboard="0"
   showgrid="false"
   inkscape:zoom="6.4609168"
   inkscape:cx="35.366498"
   inkscape:cy="44.266164"
   inkscape:window-width="1312"
   inkscape:window-height="844"
   inkscape:window-x="0"
   inkscape:window-y="0"
   inkscape:window-maximized="0"
   inkscape:current-layer="svg14" /><defs
   id="defs18" />
  <g
   id="g12"
   transform="matrix(0.07323762,0,0,0.07323762,-0.6741882,-0.64436449)">
    <g
   id="_x35_151e0c8492e5103c096af88a51f0aa3">
      <path
   d="m 231.3,300.3 -46.1,-26.4 c -2.9,-1.7 -4.7,-4.8 -4.7,-8.1 v -56.2 c 0,-3.3 -1.8,-6.5 -4.7,-8.1 l -19.6,-11.3 c -1.4,-0.9 -3.1,-1.3 -4.7,-1.3 -1.6,0 -3.2,0.4 -4.7,1.3 l -19.6,11.3 c -2.9,1.7 -4.7,4.8 -4.7,8.1 v 56.2 c 0,3.3 -1.8,6.4 -4.7,8.1 l -46.1,26.4 c -1.4,0.9 -3.2,0.9 -4.7,0 -1.5,-0.8 -2.3,-2.4 -2.3,-4 L 64.4,176 c 0,-3.4 1.8,-6.5 4.7,-8.1 l 77.6,-44.7 c 1.3,-0.8 2.8,-1.2 4.3,-1.2 0.1,0 0.7,0 0.8,0 1.5,0.1 3,0.5 4.3,1.2 l 77.6,44.7 c 2.9,1.7 4.7,4.8 4.7,8.1 l -0.1,120.3 c 0,1.7 -0.9,3.2 -2.3,4 -1.5,0.9 -3.3,0.9 -4.7,0 z M 530,268.1 v -89.7 c 0,-3.4 1.8,-6.4 4.7,-8.1 l 77.7,-44.8 c 2.9,-1.7 6.5,-1.7 9.4,0 l 19.4,11.2 c 1,0.6 2.3,0.6 3.3,0 1,-0.6 1.6,-1.7 1.6,-2.8 V 14.7 c 0,-1.7 0.9,-3.2 2.3,-4 1.4,-0.8 3.2,-0.9 4.7,0 l 46.2,25.8 c 3,1.7 4.8,4.8 4.8,8.2 v 223.5 c 0,3.4 -1.8,6.4 -4.7,8.1 l -77.7,44.9 c -2.9,1.7 -6.5,1.7 -9.4,0 l -77.7,-44.9 c -2.9,-1.8 -4.6,-4.9 -4.6,-8.2 z m 57.8,-29.5 c 0,0.8 0.4,1.6 1.2,2 l 26.7,15.4 c 0.7,0.4 1.6,0.4 2.3,0 l 26.7,-15.4 c 0.7,-0.4 1.2,-1.2 1.2,-2 v -30.8 c 0,-0.8 -0.4,-1.6 -1.2,-2 L 618,190.4 c -0.7,-0.4 -1.6,-0.4 -2.4,0 L 589,205.8 c -0.7,0.4 -1.2,1.2 -1.2,2 z m 343.1,-69.5 -77.2,-44.8 c -2.9,-1.7 -6.5,-1.7 -9.4,0 l -77.6,44.8 c -2.9,1.7 -4.7,4.8 -4.7,8.1 v 89.6 c 0,3.4 1.8,6.5 4.7,8.2 l 77.2,44 c 2.8,1.6 6.3,1.6 9.2,0.1 l 46.7,-25.9 c 1.5,-0.8 2.4,-2.4 2.4,-4.1 0,-1.7 -0.9,-3.3 -2.4,-4.1 l -78.1,-44.8 c -1.5,-0.8 -2.4,-2.4 -2.4,-4.1 V 208 c 0,-1.7 0.9,-3.2 2.3,-4.1 l 24.3,-14 c 1.4,-0.8 3.2,-0.8 4.7,0 l 24.3,14 c 1.5,0.8 2.3,2.4 2.3,4.1 v 22 c 0,1.7 0.9,3.2 2.4,4.1 1.5,0.8 3.2,0.8 4.7,0 l 46.5,-27 c 2.9,-1.7 4.7,-4.8 4.7,-8.1 v -21.7 c 0.1,-3.5 -1.7,-6.5 -4.6,-8.2 z M 302,274.5 l 77.6,44.9 c 2.9,1.7 6.5,1.7 9.4,0 l 77.7,-44.9 c 2.9,-1.7 4.7,-4.8 4.7,-8.1 v -89.7 c 0,-3.3 -1.8,-6.5 -4.7,-8.1 L 389,123.8 c -2.9,-1.7 -6.5,-1.7 -9.4,0 L 302,168.6 c -2.9,1.7 -4.7,4.8 -4.7,8.1 v 89.7 c 0.1,3.4 1.8,6.5 4.7,8.1 z M 764.6,481.4 525.1,343.1 c -15,-8.6 -35.2,-8.6 -50.3,0 L 235.4,481.4 c -15.5,8.9 -25.1,25.7 -25.1,43.6 v 276.3 c 0,17.9 9.6,34.7 25.1,43.7 l 62.8,36.2 c 30.4,15 41.3,15 55.2,15 45,0 70.9,-27.2 70.9,-74.7 V 548.7 c 0,-3.9 -3.1,-6.9 -6.9,-6.9 H 387 c -3.9,0 -7,3 -7,6.9 v 272.8 c 0,21.1 -21.8,42 -57.4,24.2 L 257,807.8 c -2.3,-1.3 -3.8,-3.7 -3.8,-6.4 V 525.1 c 0,-2.6 1.5,-5.2 3.8,-6.6 L 496.3,380.4 c 2.2,-1.3 5.2,-1.3 7.4,0 L 743,518.5 c 2.3,1.4 3.7,3.9 3.7,6.6 v 276.3 c 0,2.7 -1.4,5.2 -3.7,6.5 L 503.6,946 c -2,1.2 -5.2,1.2 -7.4,0 l -61.4,-36.5 c -1.8,-1.1 -4.2,-1.4 -5.9,-0.4 -17,9.6 -20.2,10.9 -36.1,16.4 -3.9,1.4 -9.8,3.7 2.2,10.4 l 79.9,47.3 c 7.7,4.4 16.4,6.7 25.1,6.7 8.9,0 17.6,-2.3 25.2,-6.7 L 764.6,845 c 15.5,-9 25.2,-25.7 25.2,-43.7 V 525.1 c -0.1,-18 -9.7,-34.7 -25.2,-43.7 z M 583.3,775 c -71.4,0 -87.2,-18 -92.4,-53.5 -0.6,-3.8 -3.9,-6.6 -7.8,-6.6 h -34.9 c -4.3,0 -7.8,3.5 -7.8,7.8 0,45.5 24.7,99.7 142.9,99.7 85.5,0 134.6,-33.7 134.6,-92.5 0,-58.3 -39.4,-73.8 -122.4,-84.8 -83.8,-11.1 -92.4,-16.8 -92.4,-36.5 0,-16.2 7.2,-37.8 69.3,-37.8 55.5,0 75.9,11.9 84.3,49.3 0.7,3.5 3.9,6.1 7.6,6.1 h 35 c 2.2,0 4.2,-0.9 5.7,-2.5 1.5,-1.6 2.3,-3.8 2.1,-6 -5.4,-64.4 -48.2,-94.4 -134.7,-94.4 -77,0 -122.9,32.5 -122.9,86.9 0,59.1 45.7,75.4 119.5,82.7 88.4,8.7 95.3,21.6 95.3,39 0.1,30.3 -24.1,43.1 -81,43.1 z M 849.7,202.8 c -0.6,-0.3 -1.2,-0.3 -1.8,0 l -14.9,8.6 c -0.6,0.3 -0.9,0.9 -0.9,1.6 v 17.2 c 0,0.6 0.3,1.2 0.9,1.6 l 14.9,8.6 c 0.5,0.3 1.2,0.3 1.8,0 l 14.9,-8.6 c 0.6,-0.3 0.9,-0.9 0.9,-1.6 V 213 c 0,-0.6 -0.3,-1.2 -0.9,-1.6 z"
   id="path9" />
    </g>
  </g>
</svg>
