<?xml version="1.0" standalone="no"?>
<!DOCTYPE svg PUBLIC "-//W3C//DTD SVG 20010904//EN"
 "http://www.w3.org/TR/2001/REC-SVG-20010904/DTD/svg10.dtd">
<svg version="1.0" xmlns="http://www.w3.org/2000/svg"
 width="452.000000pt" height="452.000000pt" viewBox="0 0 452.000000 452.000000"
 preserveAspectRatio="xMidYMid meet">
<metadata>
Created by potrace 1.14, written by Peter Selinger 2001-2017
</metadata>
<g transform="translate(0.000000,452.000000) scale(0.100000,-0.100000)"
fill="#000000" stroke="none">
<path d="M1687 4503 c3 -7 -2 -13 -10 -13 -12 0 -14 -10 -12 -45 2 -47 10 -64
22 -51 4 4 1 11 -7 16 -13 9 -13 10 0 10 13 0 13 2 0 11 -13 9 -12 10 3 5 9
-3 17 -1 17 4 0 6 -8 10 -17 10 -14 0 -15 2 -4 9 11 7 11 9 0 13 -9 3 -8 6 5
11 9 4 15 3 11 -2 -3 -5 4 -12 15 -16 22 -7 21 -5 24 -61 1 -34 -1 -41 -14
-36 -13 5 -13 3 -1 -11 7 -9 10 -25 7 -34 -6 -14 -9 -15 -15 -4 -5 8 -11 9
-15 3 -6 -11 21 -25 33 -17 7 3 7 -16 2 -58 -1 -5 -5 -6 -10 -3 -5 3 -11 0
-14 -8 -3 -8 1 -13 11 -12 12 1 17 -7 17 -29 0 -20 -5 -30 -15 -30 -8 0 -17
-3 -20 -6 -3 -4 -11 -1 -18 7 -7 8 -9 14 -5 14 13 0 12 50 -1 50 -6 1 5 10 24
20 22 12 27 19 15 17 -11 -1 -25 -6 -31 -9 -6 -4 -11 -1 -11 7 0 8 5 11 10 8
6 -4 7 -1 2 7 -5 9 -4 11 3 6 8 -5 10 -2 6 8 -3 9 -11 16 -18 16 -6 0 -4 5 4
10 12 8 12 10 1 10 -11 0 -10 5 4 20 16 18 16 20 1 26 -9 4 -20 4 -23 0 -4 -3
-1 -6 5 -6 7 0 12 -5 12 -11 0 -5 -3 -8 -7 -6 -10 6 -10 -910 0 -919 4 -4 10
-4 14 0 4 4 2 11 -6 15 -10 7 -9 10 3 14 20 8 20 21 1 40 -11 12 -12 17 -2 20
9 4 9 6 -1 6 -8 1 -10 6 -5 13 10 17 13 69 4 64 -4 -3 -8 1 -8 9 0 11 4 12 13
4 7 -6 14 -6 18 -1 3 6 -1 13 -10 16 -13 5 -14 9 -4 21 16 20 36 19 44 -1 4
-10 -1 -23 -11 -31 -17 -14 -17 -14 0 -9 11 4 16 2 12 -5 -4 -6 -13 -8 -21 -5
-8 3 -14 1 -14 -4 0 -6 6 -10 14 -10 8 0 17 -7 20 -16 3 -9 2 -12 -5 -9 -6 4
-8 -2 -4 -18 4 -14 2 -28 -4 -31 -6 -4 -11 -2 -11 4 0 6 -5 8 -11 4 -8 -5 -6
-10 5 -16 9 -5 20 -7 24 -4 4 3 8 -19 8 -48 -1 -43 -4 -52 -16 -48 -13 5 -13
3 -1 -11 7 -9 10 -25 7 -34 -6 -14 -9 -15 -15 -4 -5 8 -11 9 -15 3 -6 -11 21
-25 33 -17 7 3 7 -16 2 -58 -1 -5 -5 -6 -10 -3 -5 3 -11 -1 -14 -9 -4 -9 -1
-12 7 -9 16 6 31 -12 17 -20 -5 -3 -7 -15 -4 -25 3 -10 0 -22 -6 -25 -6 -4
-11 -2 -11 4 0 6 -5 8 -11 4 -8 -5 -6 -10 5 -16 9 -5 20 -7 24 -4 4 3 8 -19 8
-48 -1 -43 -4 -52 -16 -48 -13 5 -13 3 -1 -11 7 -9 10 -25 7 -34 -6 -14 -9
-15 -15 -4 -5 8 -11 9 -15 3 -6 -11 21 -25 33 -17 7 3 7 -16 2 -58 -1 -5 -5
-6 -10 -3 -5 3 -11 0 -14 -8 -3 -8 1 -13 11 -12 12 1 17 -7 17 -29 0 -20 -5
-30 -15 -30 -8 0 -17 -3 -20 -6 -3 -4 -11 -1 -18 7 -7 8 -9 14 -5 14 13 0 12
50 -1 50 -6 1 5 10 24 20 22 12 27 19 15 17 -11 -1 -25 -6 -31 -9 -6 -4 -11
-1 -11 7 0 8 5 11 10 8 6 -4 7 -1 2 7 -5 9 -4 11 3 6 8 -5 10 -2 6 8 -3 9 -11
16 -18 16 -6 0 -4 5 4 10 12 8 12 10 1 10 -11 0 -10 5 4 20 16 18 16 20 1 26
-9 4 -20 4 -23 0 -4 -3 -1 -6 5 -6 7 0 12 -5 12 -11 0 -5 -3 -8 -7 -6 -10 6
-10 -910 0 -919 4 -4 10 -4 15 1 4 4 1 10 -6 12 -10 4 -9 8 3 17 17 12 11 46
-9 46 -6 0 -4 5 4 10 11 7 11 10 2 10 -8 0 -10 5 -5 12 10 17 13 69 4 64 -4
-3 -8 1 -8 9 0 11 4 12 13 4 7 -6 14 -6 18 -1 3 6 -1 13 -10 16 -13 5 -14 9
-4 21 16 20 36 19 44 -1 4 -10 -1 -23 -11 -31 -17 -14 -17 -14 0 -9 11 4 16 2
12 -5 -4 -6 -13 -8 -21 -5 -8 3 -14 1 -14 -4 0 -6 6 -10 14 -10 8 0 17 -7 20
-16 3 -9 2 -12 -5 -9 -6 4 -8 -2 -4 -18 4 -14 2 -28 -4 -31 -6 -4 -11 -2 -11
4 0 6 -5 8 -11 4 -8 -5 -6 -10 5 -16 9 -5 20 -7 24 -4 4 3 8 -19 8 -48 -1 -43
-4 -52 -16 -48 -13 5 -13 3 -1 -11 7 -9 10 -25 7 -34 -6 -14 -9 -15 -15 -4 -5
8 -11 9 -15 3 -6 -11 21 -25 33 -17 7 3 7 -16 2 -58 -1 -5 -5 -6 -10 -3 -5 3
-11 0 -14 -8 -3 -8 1 -13 11 -12 12 1 17 -7 17 -29 0 -20 -5 -30 -15 -30 -8 0
-17 -3 -20 -6 -3 -4 -11 -1 -18 7 -7 8 -9 14 -5 14 13 0 12 50 -1 50 -6 1 5
10 24 20 22 12 27 19 15 17 -11 -1 -25 -6 -31 -9 -6 -4 -11 -1 -11 7 0 8 5 11
10 8 6 -4 7 -1 2 7 -5 9 -4 11 3 6 8 -5 10 -2 6 8 -3 9 -11 16 -18 16 -6 0 -4
5 4 10 12 8 12 10 1 10 -11 0 -10 5 4 20 16 18 16 20 1 26 -9 4 -20 4 -23 0
-4 -3 -1 -6 5 -6 7 0 12 -5 12 -11 0 -5 -3 -8 -7 -6 -11 7 -9 -890 1 -900 5
-5 6 -2 1 7 -8 13 -6 13 7 2 10 -8 19 -9 22 -4 3 6 -1 13 -10 16 -13 5 -14 9
-4 21 7 8 18 15 25 15 19 0 28 -32 12 -41 -8 -5 -13 -21 -12 -38 2 -26 -1 -29
-17 -20 -10 5 -24 7 -31 4 -6 -4 -4 0 6 8 22 18 22 22 -3 24 -11 1 -18 -3 -14
-8 3 -5 1 -16 -6 -24 -16 -19 4 -57 26 -48 16 6 10 18 -8 18 -6 0 -13 7 -15
15 -4 13 -3 13 6 0 10 -13 11 -13 11 0 0 13 1 13 10 0 5 -8 10 -11 10 -5 0 5
5 4 12 -3 14 -14 20 -60 7 -67 -5 -3 -6 1 -3 9 5 13 -2 14 -34 7 -2 -1 4 -8
13 -17 9 -9 14 -23 11 -31 -3 -8 -6 -19 -6 -24 0 -6 -4 -7 -10 -4 -6 4 -9 -4
-7 -17 1 -18 -3 -23 -21 -22 -13 1 -21 -3 -19 -10 7 -20 -34 -86 -54 -86 -10
0 -24 -9 -31 -20 -7 -11 -18 -20 -25 -20 -7 0 -23 -11 -37 -24 -18 -16 -34
-22 -51 -18 -27 5 -25 17 3 17 11 0 16 7 15 20 -1 20 -1 20 13 1 7 -11 17 -17
20 -13 7 7 -14 37 -25 37 -4 0 -16 -8 -27 -18 -10 -9 -30 -17 -44 -18 -14 0
-24 -5 -23 -11 1 -7 -18 -10 -52 -9 -48 2 -54 0 -50 -15 5 -14 1 -17 -19 -15
-14 1 -32 8 -40 16 -9 7 -16 9 -16 6 0 -4 -9 -2 -19 4 -14 7 -21 6 -23 -2 -3
-8 -6 -7 -10 3 -3 9 -2 22 3 30 6 9 9 10 9 2 0 -7 9 -17 20 -23 16 -8 20 -8
20 4 0 10 -6 13 -17 9 -9 -4 -14 -2 -11 3 3 5 -10 22 -28 37 l-33 28 -11 -22
c-9 -16 -9 -20 -1 -14 14 8 43 -14 35 -27 -3 -5 -11 -4 -19 2 -8 7 -19 9 -24
6 -6 -4 -8 2 -6 14 2 11 0 18 -6 15 -5 -4 -16 1 -25 9 -12 12 -13 20 -4 33 11
17 11 17 6 0 -4 -12 -2 -16 6 -11 7 5 8 3 3 -6 -6 -9 -4 -11 5 -5 9 5 11 4 6
-3 -5 -8 -2 -10 8 -6 20 8 21 24 2 24 -8 0 -17 7 -20 16 -3 8 -10 13 -15 10
-5 -3 -11 9 -15 27 -5 25 -9 29 -16 17 -9 -14 -15 -7 -11 14 3 18 -29 54 -46
51 -10 -1 -26 2 -36 7 -17 9 -17 11 -3 27 9 10 13 21 9 25 -5 4 -8 13 -8 19 0
5 -6 12 -13 15 -11 3 -12 0 -2 -18 9 -16 9 -25 1 -33 -8 -8 -11 -3 -12 18 -1
17 -1 36 0 42 1 7 -4 23 -11 35 -17 31 -17 40 1 62 15 18 15 19 -1 13 -10 -4
-18 -2 -18 3 0 6 7 10 16 10 8 0 12 5 9 10 -4 6 -11 7 -17 4 -7 -4 -8 -2 -4 5
4 6 12 8 18 5 6 -4 8 -1 6 7 -3 8 -10 13 -15 12 -5 -1 -9 7 -9 18 0 10 6 19
14 19 7 0 10 5 7 10 -4 6 -12 8 -18 4 -7 -3 -1 3 13 14 14 12 21 24 17 28 -4
4 -7 3 -7 -3 0 -18 -26 -10 -27 9 -1 10 5 18 13 18 8 0 12 5 9 10 -4 6 -11 7
-17 4 -7 -4 -8 -2 -4 5 4 6 12 8 18 5 6 -4 8 -1 6 7 -3 8 -9 13 -14 12 -5 -1
-9 9 -9 22 0 13 3 21 8 18 9 -5 9 11 0 21 -13 13 -10 51 6 70 14 17 14 19 0
14 -20 -8 -19 30 2 43 12 7 7 13 -12 11 -3 0 -5 19 -5 42 1 31 5 42 13 39 7
-3 13 -1 13 5 0 5 -7 12 -15 16 -11 4 -13 11 -5 30 6 17 6 27 -1 32 -6 4 -6
11 2 20 6 7 16 11 22 7 6 -4 7 -1 3 6 -5 7 -13 10 -20 8 -7 -3 -13 4 -13 14
-1 11 5 19 13 19 8 0 12 5 9 10 -4 6 -11 7 -17 4 -7 -4 -8 -2 -4 5 4 6 11 9
15 6 5 -2 13 7 20 21 14 31 14 31 -4 31 -10 0 -13 -6 -10 -17 3 -10 0 -17 -7
-17 -7 0 -13 10 -13 23 0 12 3 20 8 17 4 -2 7 0 7 6 0 5 -5 13 -10 16 -7 5 -8
11 -1 19 6 7 6 18 1 25 -12 20 0 43 18 36 8 -3 20 -1 26 4 8 7 12 4 13 -12 2
-17 0 -19 -7 -7 -8 13 -10 13 -10 -2 0 -9 6 -19 13 -21 9 -4 8 -6 -2 -6 -11
-1 -11 -4 0 -18 8 -10 9 -14 2 -10 -8 5 -11 0 -10 -13 1 -11 5 -20 10 -20 5 0
4 -7 -4 -16 -10 -13 -10 -17 2 -26 11 -8 10 -9 -4 -4 -10 3 -16 2 -12 -3 3 -5
-1 -12 -7 -15 -7 -3 -3 -3 9 0 17 4 22 1 20 -15 -1 -14 -5 -17 -11 -11 -15 15
-30 12 -17 -3 6 -8 7 -18 3 -22 -4 -5 0 -6 10 -2 11 4 15 1 13 -11 -1 -9 -9
-16 -17 -14 -8 1 -15 -4 -15 -10 -1 -23 -8 -43 -18 -51 -6 -5 -4 -7 5 -4 8 2
14 10 12 16 -1 7 2 10 8 6 6 -4 9 -1 8 6 -2 6 4 14 12 16 13 4 13 3 0 -6 -13
-10 -13 -11 0 -11 13 -1 13 -2 0 -13 -8 -7 -16 -20 -18 -30 -3 -15 0 -16 15
-6 17 10 18 29 18 229 0 120 -4 222 -9 227 -5 4 -7 -2 -3 -15 3 -12 2 -20 -2
-18 -4 3 -7 -9 -6 -25 0 -16 4 -29 9 -29 6 0 1 -6 -9 -14 -15 -10 -25 -11 -39
-4 -19 10 -19 11 -1 24 17 12 14 18 -7 15 -4 0 -5 8 -3 19 4 19 -16 43 -31 38
-5 -2 -10 2 -11 7 -1 6 5 9 13 7 8 -2 14 1 14 5 0 4 -51 8 -114 8 -63 0 -112
-3 -109 -8 2 -4 8 -5 12 -2 5 2 16 -2 26 -9 17 -12 17 -13 -3 -11 -12 1 -25 4
-28 8 -10 10 -26 9 -20 -1 6 -10 -24 -9 -40 1 -6 3 -14 3 -18 0 -3 -4 -20 -7
-36 -8 -21 -1 -27 2 -20 9 14 14 40 16 40 4 0 -7 4 -7 13 0 6 5 22 8 34 6 13
-2 23 -1 23 4 0 4 -57 6 -128 6 -162 -2 -162 -2 -162 -13 0 -10 19 -9 36 2 7
4 14 1 17 -6 3 -8 -7 -12 -33 -12 -32 -1 -36 2 -32 20 4 20 4 20 -12 -1 -11
-15 -23 -20 -41 -17 -14 3 -25 9 -25 13 0 9 20 8 37 -3 6 -4 14 -3 18 3 3 5
-2 11 -12 12 -56 4 -83 3 -83 -5 0 -5 6 -7 13 -4 8 3 14 -1 14 -9 0 -14 -11
-10 -41 15 -18 15 -18 15 -8 -4 9 -17 7 -21 -7 -21 -13 0 -17 6 -13 21 4 20 4
19 -12 -1 -11 -15 -23 -20 -41 -17 -14 3 -25 9 -25 13 0 9 20 8 37 -3 6 -4 14
-3 18 3 7 11 -3 12 -75 14 l-45 1 0 -910 c1 -751 3 -909 14 -907 9 2 12 -5 9
-23 -4 -16 -1 -25 8 -25 17 0 10 37 -12 61 -11 12 -13 19 -5 19 7 0 9 4 6 10
-10 17 -14 50 -6 50 4 0 8 7 8 15 0 8 -3 15 -7 15 -11 0 -7 29 4 33 7 3 11
-12 11 -39 1 -24 -3 -44 -7 -44 -5 0 -5 -8 0 -18 5 -9 7 -23 5 -29 -3 -7 0
-13 6 -13 6 0 11 -5 11 -11 0 -7 8 -18 18 -25 16 -13 16 -14 -3 -7 -17 6 -18
4 -8 -9 7 -8 9 -19 5 -23 -4 -5 1 -6 10 -2 10 3 19 0 22 -9 3 -9 10 -12 16 -9
5 3 8 0 5 -7 -3 -7 7 -21 22 -31 16 -10 20 -16 11 -13 -12 3 -18 0 -18 -10 0
-8 4 -13 9 -9 5 3 12 1 16 -5 4 -6 11 -8 16 -5 5 3 6 -2 2 -11 -4 -12 -3 -15
5 -10 8 5 10 2 6 -9 -5 -11 -2 -14 10 -9 9 3 16 1 16 -4 0 -16 -18 -24 -25
-12 -4 6 -11 8 -16 5 -5 -3 -7 0 -4 7 3 7 -8 22 -24 33 -30 19 -34 33 -16 48
6 4 1 7 -10 5 -14 -2 -19 2 -17 14 2 12 -2 16 -13 12 -8 -3 -12 -11 -8 -18 3
-6 2 -7 -2 -3 -8 7 -15 27 -17 54 -1 6 -8 9 -16 6 -8 -3 -9 -8 -4 -12 5 -3 11
-15 13 -26 2 -11 14 -24 26 -31 16 -7 19 -14 12 -21 -8 -8 -8 -13 0 -17 6 -4
11 -4 11 0 0 3 9 -4 20 -17 10 -13 20 -19 20 -14 0 6 6 -1 13 -15 8 -14 19
-24 25 -23 7 2 12 -3 12 -10 0 -7 9 -18 20 -25 12 -7 18 -18 14 -25 -4 -7 -3
-9 1 -4 5 4 17 -1 27 -10 18 -16 35 -23 66 -25 11 -1 16 -12 13 -30 -1 -7 15
-10 35 -7 4 0 10 -5 15 -13 5 -7 17 -14 29 -14 37 -3 41 -4 36 -12 -2 -4 53
-7 124 -7 89 0 126 3 123 11 -5 13 -55 14 -64 1 -4 -5 -10 -4 -13 2 -4 6 -2
11 4 11 6 0 9 4 5 9 -3 5 -1 12 4 15 5 4 12 2 16 -4 4 -6 12 -7 18 -3 7 4 24
8 38 9 19 1 26 -3 24 -15 -1 -9 -8 -15 -13 -14 -6 2 -9 -3 -6 -10 6 -16 142
-18 148 -2 2 6 -7 11 -20 11 -13 0 -24 -4 -24 -8 0 -4 -5 -8 -11 -8 -5 0 -8 4
-5 8 2 4 -4 8 -14 8 -10 0 -16 -4 -14 -8 3 -4 1 -8 -4 -8 -15 0 -24 32 -13 43
7 7 12 5 17 -6 7 -19 25 -23 21 -5 -1 7 11 12 30 13 25 2 30 -1 25 -14 -4 -13
-2 -13 15 2 14 12 23 15 28 7 3 -5 12 -7 18 -3 15 9 66 12 65 4 -2 -20 4 -23
15 -8 11 16 13 16 29 -2 10 -12 13 -23 8 -26 -6 -4 -10 0 -10 7 0 9 -3 9 -10
-2 -8 -12 -10 -12 -10 -1 0 11 -3 11 -15 1 -9 -7 -18 -10 -22 -6 -3 3 -1 6 6
6 7 0 9 5 6 11 -5 6 -12 4 -21 -8 -9 -13 -13 -14 -14 -4 0 11 -3 11 -17 0 -10
-8 -14 -9 -10 -2 5 8 0 11 -13 10 -10 -1 -21 -6 -23 -12 -3 -7 90 -10 293 -10
210 0 296 3 293 11 -5 13 -63 14 -63 0 0 -6 -5 -5 -12 2 -7 7 -17 12 -22 12
-6 0 -4 -5 4 -10 9 -6 10 -10 3 -10 -6 0 -15 5 -19 11 -5 8 -9 8 -14 -1 -6 -9
-11 -7 -19 8 -11 21 2 42 14 22 4 -6 12 -7 18 -3 7 4 24 8 39 9 20 1 25 -3 20
-15 -4 -13 -1 -12 16 3 20 17 22 18 28 2 5 -14 9 -15 15 -4 9 15 69 20 66 5
-1 -5 4 -12 12 -15 8 -2 11 0 7 6 -3 6 -2 13 3 16 5 4 12 2 16 -4 4 -6 12 -7
18 -3 7 4 24 8 39 9 20 1 25 -3 20 -15 -4 -13 -1 -12 16 3 20 17 22 18 28 2 5
-14 9 -15 15 -4 4 7 22 13 38 14 17 1 28 -2 25 -7 -2 -4 3 -12 12 -17 11 -6
13 -11 5 -16 -6 -4 -11 -1 -11 6 0 9 -3 9 -10 -2 -8 -12 -10 -12 -10 -1 0 11
-3 11 -15 1 -9 -7 -18 -10 -22 -6 -3 3 -1 6 5 6 6 0 9 7 5 17 -5 13 -8 12 -16
-8 -6 -15 -11 -19 -14 -11 -4 10 -8 10 -21 0 -10 -9 -13 -9 -9 -1 5 8 0 11
-13 10 -10 -1 -21 -6 -23 -12 -7 -16 496 -15 506 2 4 7 14 10 21 7 7 -3 16 2
20 11 3 10 12 15 19 13 13 -5 41 21 45 43 1 8 -4 6 -13 -5 -8 -11 -15 -15 -15
-10 0 6 -7 11 -15 11 -14 0 -19 -10 -16 -29 0 -4 -7 -5 -17 -2 -13 5 -14 4 -3
-4 9 -7 10 -12 2 -16 -6 -4 -11 -1 -11 6 0 9 -3 9 -10 -2 -9 -13 -10 -13 -10
0 0 13 -2 13 -9 0 -6 -8 -7 -19 -3 -25 3 -5 -2 -4 -11 4 -14 11 -17 11 -17 0
0 -10 -3 -10 -12 -1 -9 9 -8 16 6 30 11 9 16 12 12 5 -3 -6 -2 -14 4 -18 5 -3
10 0 10 8 0 8 7 20 15 27 13 11 14 10 9 -5 -6 -15 -5 -16 15 -4 11 8 21 19 21
25 0 6 7 17 15 24 13 11 14 10 8 -6 -6 -16 -4 -17 9 -7 8 7 19 9 23 5 5 -4 5
1 2 10 -4 12 -1 18 8 18 8 0 14 6 12 12 -1 9 9 12 30 11 26 -1 31 2 28 18 -2
12 2 19 11 19 8 0 14 6 14 14 0 8 5 18 12 22 8 5 9 1 4 -12 -5 -15 -4 -16 5
-7 6 6 17 9 24 6 8 -2 13 2 11 11 -3 20 -16 33 -16 16 0 -7 -3 -10 -6 -7 -12
11 17 36 33 30 11 -4 14 -2 9 5 -4 8 -2 10 8 6 10 -4 14 0 11 13 -1 10 4 26
13 36 8 9 12 17 8 17 -4 0 0 7 8 16 9 8 14 20 11 25 -4 5 2 6 11 2 12 -4 15
-3 10 5 -5 8 -1 10 11 5 17 -6 17 -6 0 14 -16 18 -16 21 -2 33 9 7 13 21 10
31 -4 13 -1 19 9 19 9 0 15 3 15 8 -5 27 3 82 10 78 5 -4 8 -17 7 -30 -2 -17
1 -23 11 -19 11 4 11 8 1 21 -10 12 -10 14 0 8 16 -10 15 0 -4 29 -15 23 -15
25 0 31 9 3 13 10 10 15 -3 5 -9 7 -13 4 -10 -6 -8 51 2 61 4 4 2 13 -4 20 -9
10 -7 15 5 20 9 3 13 10 10 15 -3 5 -9 7 -13 4 -5 -2 -8 9 -7 26 1 16 7 34 14
38 11 6 10 10 -5 15 -17 7 -17 8 1 22 17 12 15 18 -5 16 -9 -1 -5 55 4 64 4 4
2 13 -4 20 -9 10 -7 15 5 20 9 3 13 10 10 15 -3 5 -9 7 -13 4 -5 -2 -8 9 -7
26 1 16 7 34 14 38 11 6 10 10 -5 15 -17 7 -17 8 1 22 17 12 15 18 -5 16 -9
-1 -5 55 4 64 4 4 2 13 -4 20 -9 10 -7 15 5 20 9 3 13 10 10 15 -3 5 -9 7 -13
4 -17 -10 -5 55 13 68 15 11 17 17 7 36 -7 12 -16 19 -20 17 -12 -8 -6 31 7
47 7 7 9 17 5 20 -3 4 -1 7 5 7 7 0 12 5 12 11 0 5 -4 8 -8 5 -4 -2 -8 4 -8
14 0 11 5 16 15 12 10 -4 13 -1 8 12 -5 11 -3 15 5 10 7 -5 9 -2 6 7 -4 11 6
14 47 14 33 0 51 -4 48 -11 -2 -5 -16 -10 -31 -10 -20 1 -27 -4 -26 -16 1 -10
-3 -15 -9 -11 -6 4 -7 1 -2 -7 5 -8 4 -11 -3 -6 -6 3 -9 -1 -7 -11 2 -10 4
-20 4 -23 1 -3 9 11 20 30 11 21 26 35 37 35 19 0 53 -25 48 -36 -2 -3 8 -18
21 -33 14 -16 22 -33 18 -39 -3 -5 -1 -7 5 -4 15 10 9 35 -14 52 -16 13 -16
14 -1 9 10 -4 17 -1 17 6 0 6 -4 8 -10 5 -5 -3 -8 0 -7 7 2 7 2 10 0 5 -3 -4
-9 -4 -14 -1 -6 3 -2 12 8 20 26 20 35 17 27 -8 -6 -21 -5 -22 11 -8 11 8 16
10 12 4 -3 -6 0 -19 7 -30 8 -10 11 -25 8 -33 -3 -9 -1 -12 6 -7 8 5 12 -4 12
-28 0 -33 8 -41 33 -37 5 1 6 -3 2 -9 -3 -5 -2 -10 3 -10 5 0 9 -6 9 -14 0 -9
-6 -12 -16 -8 -14 5 -14 3 -2 -11 10 -13 17 -14 27 -7 9 9 12 7 10 -7 -2 -10
4 -24 13 -31 14 -10 13 -11 -4 -5 -18 6 -18 5 -6 -10 11 -14 11 -20 1 -32 -12
-14 -10 -15 13 -11 20 3 25 1 20 -12 -5 -12 -2 -14 12 -9 17 7 17 6 0 -19 -16
-25 -16 -26 4 -19 24 7 27 -4 9 -24 -11 -11 -10 -13 5 -8 11 4 16 3 12 -4 -4
-5 -2 -15 3 -22 23 -28 52 -89 52 -108 0 -16 4 -20 18 -15 16 6 16 5 -1 -8
-10 -8 -14 -16 -8 -17 5 -2 11 -11 13 -19 2 -8 10 -20 18 -27 12 -10 13 -12 1
-13 -8 0 -11 -3 -8 -7 4 -3 2 -12 -4 -20 -8 -9 -8 -13 -1 -13 6 0 14 5 17 10
10 15 28 12 22 -4 -3 -8 1 -20 8 -26 8 -7 12 -17 9 -22 -4 -6 -1 -14 5 -18 7
-4 13 -13 14 -21 2 -8 6 -20 11 -27 4 -7 5 -16 2 -19 -3 -4 -6 -1 -6 5 0 6 -7
9 -15 6 -8 -4 -15 -10 -15 -16 0 -5 5 -6 10 -3 6 3 10 1 10 -5 0 -6 3 -9 8 -6
11 6 47 -22 38 -31 -4 -4 -11 -1 -17 7 -7 11 -8 9 -5 -10 3 -14 5 -29 5 -33 1
-5 6 -5 11 -2 6 4 8 11 5 16 -3 5 1 6 11 2 15 -5 15 -7 0 -15 -9 -5 -16 -14
-16 -20 0 -7 4 -7 14 1 10 9 16 8 26 -4 7 -8 9 -15 5 -15 -4 0 -2 -6 4 -14 6
-8 11 -18 10 -22 -3 -21 2 -35 11 -29 6 3 10 1 10 -4 0 -20 3 -26 19 -39 14
-10 14 -11 -4 -5 -20 6 -20 6 -1 -15 10 -12 24 -19 30 -15 7 4 7 2 -1 -8 -12
-15 -3 -41 13 -40 5 0 8 -14 7 -32 -2 -17 0 -26 3 -19 3 6 10 12 15 12 6 0 7
-5 4 -11 -4 -5 1 -19 11 -30 9 -10 13 -19 8 -19 -5 0 -2 -5 6 -10 13 -9 13
-11 0 -20 -8 -5 -12 -10 -7 -11 4 -1 12 -3 17 -4 6 -1 16 -3 23 -4 9 -1 9 -3
-1 -10 -11 -7 -11 -10 0 -22 7 -8 20 -27 28 -44 8 -16 19 -36 24 -44 19 -24
15 -38 -10 -35 -13 1 -24 -2 -24 -7 0 -6 -5 -7 -11 -3 -6 3 -7 9 -2 13 8 6 9
13 5 49 -1 7 -7 10 -13 6 -7 -4 -8 -9 0 -17 6 -6 7 -16 0 -28 -7 -14 -3 -24
17 -46 l26 -28 293 0 c206 0 291 3 288 11 -5 13 -63 14 -63 0 0 -6 -5 -5 -12
2 -7 7 -17 12 -22 12 -6 0 -4 -5 4 -10 9 -6 10 -10 3 -10 -6 0 -15 5 -19 11
-5 8 -9 8 -14 -1 -6 -9 -11 -7 -19 8 -11 21 2 42 14 22 4 -6 12 -7 18 -3 7 4
24 8 39 9 20 1 25 -3 20 -15 -4 -13 -1 -12 16 3 20 17 22 18 28 2 5 -14 9 -15
15 -4 9 15 69 20 66 5 -1 -5 4 -12 12 -15 8 -2 11 0 7 6 -3 6 -2 13 3 16 5 4
12 2 16 -4 4 -6 12 -7 18 -3 7 4 24 8 39 9 20 1 25 -3 20 -15 -4 -13 -1 -12
16 3 20 17 22 18 28 2 5 -14 9 -15 15 -4 9 15 69 20 66 5 -1 -5 4 -12 11 -14
7 -3 11 1 10 8 -2 7 7 14 19 15 12 1 21 -3 20 -9 -1 -5 4 -12 11 -14 7 -3 11
1 10 8 -2 9 8 13 27 14 20 0 29 5 27 13 -1 8 2 11 8 7 11 -7 14 8 3 18 -9 10
-10 66 0 60 9 -5 9 11 0 20 -9 10 -10 66 0 60 9 -5 9 11 0 20 -3 4 -7 20 -7
36 -1 22 2 27 11 19 6 -5 10 -15 7 -23 -3 -7 0 -16 5 -20 6 -3 9 -11 5 -16
-11 -19 -14 -58 -4 -64 6 -4 8 -11 4 -16 -3 -5 -7 -22 -10 -37 -3 -19 -2 -23
5 -12 5 8 7 18 5 22 -3 4 0 8 6 8 8 0 9 -7 5 -17 -10 -25 -14 -84 -6 -78 10 6
7 -33 -4 -42 -4 -5 -5 -2 0 6 5 9 4 12 -3 7 -6 -4 -20 -2 -30 3 -13 7 -22 7
-30 -1 -7 -7 -12 -9 -12 -5 0 4 -10 2 -22 -4 -13 -6 -20 -8 -16 -4 9 10 -10
35 -25 35 -7 0 -7 -4 1 -12 15 -15 15 -28 1 -28 -5 0 -7 6 -3 13 5 8 2 8 -9
-2 -14 -11 -17 -11 -17 0 0 11 -2 11 -10 -1 -8 -12 -10 -12 -10 -1 0 11 -3 11
-15 1 -9 -7 -18 -10 -22 -6 -3 3 -1 6 5 6 6 0 9 7 5 17 -5 13 -8 12 -16 -8 -6
-15 -11 -19 -14 -11 -4 10 -8 10 -21 0 -10 -9 -13 -9 -9 -1 5 8 0 11 -13 10
-10 -1 -21 -6 -24 -12 -2 -7 49 -10 163 -10 l167 0 1 33 c0 17 -3 32 -8 32 -5
0 -9 5 -9 11 0 5 3 8 8 6 4 -3 7 80 7 183 0 121 -4 188 -10 187 -5 -1 -9 6 -9
16 1 9 -4 17 -12 17 -8 0 -14 10 -14 24 0 14 -5 28 -10 31 -6 4 -8 10 -5 15 3
4 -2 11 -11 14 -9 3 -14 13 -11 20 3 8 -1 20 -9 26 -8 7 -14 19 -14 26 0 8 -5
14 -11 14 -6 0 -9 6 -6 14 3 8 -1 20 -9 26 -8 7 -14 20 -14 28 0 13 -3 13 -12
4 -10 -10 -10 -15 0 -21 11 -7 10 -9 -2 -14 -9 -4 -16 -12 -16 -18 0 -9 4 -9
14 0 10 8 16 9 21 1 3 -5 3 -10 -2 -10 -4 0 0 -5 10 -11 9 -6 15 -14 12 -20
-4 -5 0 -9 7 -9 9 0 9 -3 -2 -10 -12 -8 -12 -10 -1 -10 11 0 11 -3 0 -16 -11
-14 -10 -15 7 -12 12 2 18 -2 16 -10 -1 -9 2 -11 10 -6 7 4 6 -1 -4 -12 -14
-17 -14 -21 -1 -33 12 -11 14 -11 11 1 -2 7 1 16 6 18 5 3 10 -4 11 -15 1 -11
4 -27 6 -35 2 -8 -1 -14 -8 -13 -7 2 -10 -4 -6 -12 4 -12 9 -13 18 -5 10 8 15
8 21 -1 5 -8 3 -9 -6 -4 -8 5 -11 4 -6 -3 3 -6 2 -13 -4 -17 -5 -3 -10 -12
-10 -18 0 -7 5 -4 11 6 6 9 15 14 21 11 7 -5 5 -12 -7 -20 -10 -8 -16 -17 -12
-20 4 -4 12 -2 20 4 10 8 13 6 14 -11 2 -15 0 -18 -6 -9 -7 11 -10 10 -14 -3
-4 -9 -3 -13 2 -10 5 3 13 1 16 -5 4 -6 3 -10 -2 -9 -20 3 -34 -2 -28 -11 4
-6 10 -8 15 -5 5 3 12 0 16 -6 5 -8 3 -9 -7 -4 -11 7 -12 6 -3 -6 13 -16 15
-51 2 -43 -5 3 -6 9 -4 13 3 4 -2 19 -12 32 -9 13 -15 34 -13 48 2 14 -1 21
-8 17 -7 -5 -8 -1 -4 10 4 11 2 15 -4 11 -6 -4 -9 4 -7 19 2 20 -1 24 -14 19
-13 -5 -14 -3 -5 6 14 14 5 42 -11 32 -6 -4 -4 2 4 12 14 17 13 18 -2 12 -12
-4 -15 -2 -11 9 4 10 0 13 -13 8 -17 -6 -17 -5 1 10 20 17 20 18 0 11 -11 -3
-16 -3 -12 1 4 4 -1 13 -11 21 -16 12 -15 13 3 6 18 -6 18 -5 6 10 -11 14 -11
20 -1 32 8 9 9 15 2 15 -6 0 -14 -4 -17 -10 -10 -15 -28 -12 -22 4 3 8 0 20
-8 26 -8 6 -11 19 -8 27 5 12 2 15 -8 11 -9 -4 -15 1 -17 13 -4 45 -6 50 -19
45 -7 -3 -13 1 -13 10 0 9 -9 29 -21 45 -11 16 -18 33 -14 38 3 5 -5 17 -17
25 -15 11 -18 16 -8 16 13 1 13 2 0 13 -21 16 -50 79 -43 91 4 5 -2 7 -13 3
-18 -7 -18 -7 0 8 17 13 15 19 -6 17 -3 -1 -12 5 -18 13 -7 8 -9 15 -6 15 4 0
0 10 -8 21 -8 12 -12 28 -9 37 4 10 2 13 -5 8 -6 -3 -14 -1 -18 5 -4 7 -3 9 4
5 6 -3 13 -2 16 3 5 8 -21 26 -35 23 -3 -1 -5 10 -3 23 1 14 -2 25 -7 25 -5 0
-9 7 -9 15 0 9 -7 18 -15 21 -12 5 -13 9 -4 20 9 12 9 13 -4 9 -26 -10 -28 11
-2 25 31 17 40 41 21 56 -9 6 -16 18 -16 27 0 9 -5 19 -10 22 -6 4 -8 10 -5
15 3 5 -3 14 -14 19 -27 15 -36 14 -22 -2 6 -8 8 -17 4 -20 -3 -4 2 -7 13 -7
18 -1 18 -1 -1 -12 -11 -6 -24 -16 -28 -22 -5 -7 -6 -3 -3 8 5 14 2 17 -11 12
-10 -4 -14 -4 -10 0 4 4 -1 16 -10 27 -10 11 -12 17 -5 13 6 -4 12 -2 12 4 0
6 -7 13 -15 16 -8 4 -15 10 -15 16 0 5 5 6 11 2 7 -4 10 -1 7 7 -3 8 -11 13
-18 11 -11 -3 -11 0 0 13 11 13 10 15 -3 10 -8 -4 -18 -2 -22 4 -3 6 -1 11 5
11 6 0 8 5 5 11 -4 6 -14 8 -22 5 -8 -3 -11 -2 -8 3 3 6 -2 14 -11 19 -15 8
-15 10 0 15 9 4 16 12 16 18 0 9 -4 9 -14 0 -13 -11 -25 -4 -32 19 -12 38 -18
49 -26 44 -5 -3 -9 0 -7 7 3 29 -1 40 -13 33 -8 -5 -7 0 2 11 14 17 13 18 -3
12 -27 -10 -33 21 -8 44 19 18 27 14 22 -14 -1 -4 6 -10 14 -13 14 -6 13 -8
-2 -21 -15 -13 -16 -14 -1 -9 9 2 24 -4 35 -16 11 -14 13 -18 3 -13 -24 15
-39 14 -33 -1 3 -8 8 -13 11 -10 2 3 14 0 26 -6 11 -7 24 -12 27 -11 3 1 5 -9
4 -22 -2 -14 3 -26 12 -30 14 -5 14 -8 -2 -25 -16 -18 -16 -19 3 -17 14 1 22
10 24 28 3 20 1 26 -10 22 -10 -4 -13 1 -10 18 2 16 -4 27 -18 34 -11 6 -20
18 -18 28 1 9 -3 17 -9 17 -7 0 -18 15 -26 32 -23 54 -30 60 -54 43 -29 -20
-36 -19 -34 5 1 11 5 20 10 20 4 0 5 5 1 11 -4 8 -9 7 -15 -2 -4 -7 -5 -17 -3
-21 3 -4 0 -8 -5 -8 -6 0 -11 9 -11 21 0 11 -5 17 -10 14 -6 -3 -13 1 -16 9
-3 9 -11 13 -18 9 -7 -5 -7 -2 1 8 12 15 3 43 -13 38 -5 -1 -15 11 -23 27 -8
16 -19 33 -25 37 -7 6 -4 7 7 3 13 -4 17 -1 15 11 -2 9 3 18 9 20 7 3 13 0 13
-7 0 -6 -5 -8 -12 -4 -7 4 -8 3 -4 -4 4 -6 14 -8 23 -5 11 4 14 3 9 -5 -4 -7
-14 -12 -22 -12 -8 0 -14 -5 -14 -10 0 -6 11 -8 24 -6 21 4 24 1 20 -20 -2
-13 0 -24 6 -24 6 0 9 4 5 9 -3 5 0 13 6 17 8 4 9 3 5 -4 -4 -7 -1 -12 6 -12
9 0 9 -3 -2 -11 -13 -8 -12 -9 4 -7 12 2 20 -4 21 -14 2 -10 -1 -18 -6 -18 -5
0 -9 5 -9 10 0 18 -16 10 -17 -8 -1 -14 6 -18 28 -18 29 0 38 9 19 21 -6 4 -8
11 -4 16 3 5 -5 20 -18 34 -13 13 -21 27 -20 30 2 4 -9 20 -24 36 -15 16 -24
29 -19 29 5 0 -4 13 -19 29 -15 16 -26 33 -24 38 1 4 -7 12 -18 17 -18 8 -21
17 -19 55 2 30 7 45 15 43 7 -1 8 2 4 9 -5 9 -2 10 9 6 10 -4 17 -1 17 6 0 7
-9 13 -20 14 -11 1 -19 -4 -17 -10 1 -7 -8 -11 -20 -11 -13 1 -20 -3 -17 -7 3
-5 11 -6 17 -3 8 5 8 3 0 -7 -7 -7 -13 -17 -13 -22 0 -4 6 -5 13 -1 9 6 9 5 0
-7 -10 -12 -10 -18 -1 -27 7 -7 8 -12 2 -12 -6 0 -11 -7 -11 -15 0 -8 5 -11
10 -8 6 3 7 1 3 -5 -4 -7 1 -10 13 -7 14 2 18 -1 14 -11 -3 -8 1 -14 8 -14 9
-1 8 -4 -3 -11 -10 -5 -18 -18 -19 -27 0 -14 -2 -14 -6 -2 -4 8 -12 21 -20 29
-8 7 -12 20 -8 28 3 10 1 13 -9 10 -8 -3 -20 2 -28 11 -9 11 -10 14 0 8 6 -4
12 -3 12 3 0 5 -5 13 -10 16 -6 4 -8 11 -4 16 4 6 14 3 25 -7 11 -10 19 -12
19 -6 0 6 -11 19 -24 27 -23 15 -29 48 -10 51 29 5 54 18 54 30 0 7 6 11 14 8
9 -3 21 5 31 20 18 27 35 26 35 -1 0 -10 -6 -13 -17 -9 -17 6 -17 5 0 -8 13
-10 15 -15 5 -19 -7 -2 -10 -7 -7 -11 4 -4 18 4 32 18 15 14 33 26 41 26 8 0
18 5 21 10 8 13 -29 7 -47 -7 -11 -10 -14 -7 -13 17 0 15 4 26 8 23 4 -3 14 1
22 7 8 6 19 9 25 5 5 -3 10 -2 10 4 0 5 9 8 21 6 15 -3 19 0 15 10 -3 10 0 12
11 8 11 -4 14 -3 9 6 -4 6 -4 10 1 9 4 -2 9 1 10 5 3 10 35 42 42 42 3 1 16 6
27 13 12 6 24 8 28 5 5 -6 10 11 7 29 -1 12 60 58 70 52 5 -3 10 0 10 5 1 6 2
14 3 19 0 4 16 24 34 44 23 24 41 35 54 33 14 -3 18 0 14 10 -3 8 1 20 8 27 7
7 11 18 9 24 -2 6 8 19 22 28 14 9 23 21 20 26 -4 6 2 7 12 3 16 -6 17 -5 3
12 -8 10 -10 16 -4 12 10 -6 26 24 21 38 -1 2 6 10 16 17 10 8 17 20 15 27 -2
7 5 15 16 16 30 5 39 20 27 44 -10 18 -9 20 6 14 15 -6 16 -4 6 9 -11 12 -9
18 7 33 23 21 28 44 5 25 -9 -7 -15 -8 -15 -2 0 5 7 13 16 16 8 3 12 11 9 17
-4 5 1 19 10 29 9 10 14 24 10 29 -3 6 1 14 9 17 9 3 13 10 10 15 -3 5 -10 6
-16 3 -7 -4 -8 -2 -4 5 4 6 12 8 18 5 7 -5 9 -1 5 9 -4 12 -2 14 11 10 15 -6
15 -5 3 11 -24 29 -21 53 6 50 24 -2 32 11 11 18 -6 2 -12 16 -12 31 -1 15 3
26 9 24 13 -5 14 -30 0 -40 -6 -5 -4 -7 5 -4 8 2 14 9 13 15 -1 5 3 12 11 15
7 3 13 -1 13 -9 0 -8 -5 -14 -10 -14 -5 0 -3 -8 4 -17 8 -9 9 -14 3 -10 -14 8
-24 -15 -19 -42 3 -15 -1 -19 -13 -14 -10 3 -7 -3 8 -16 14 -12 18 -19 9 -16
-9 3 -22 -1 -29 -10 -9 -11 -9 -15 -1 -15 7 0 9 -4 6 -10 -3 -5 -2 -10 2 -10
5 0 9 -10 10 -22 1 -19 -2 -17 -16 11 -14 27 -19 30 -24 17 -5 -11 -3 -15 5
-10 6 4 8 3 4 -4 -3 -6 -2 -13 4 -17 17 -11 2 -22 -25 -20 -19 3 -25 -1 -23
-13 2 -10 10 -23 18 -30 13 -12 13 -13 0 -6 -12 5 -13 4 -3 -6 8 -9 9 -19 2
-32 -5 -10 -6 -18 -2 -18 16 0 28 16 28 35 0 11 5 26 12 33 7 7 10 19 6 28 -3
9 0 14 8 12 10 -2 14 7 14 27 0 17 4 37 10 45 5 8 8 25 6 38 -1 13 3 30 10 39
20 23 20 493 0 493 -11 0 -11 -3 0 -17 8 -9 9 -14 3 -10 -7 4 -11 -10 -10 -43
0 -27 3 -47 6 -45 4 2 7 -2 7 -10 0 -11 -4 -12 -13 -4 -7 6 -14 6 -18 1 -3 -6
1 -13 10 -16 13 -5 14 -9 4 -21 -16 -20 -36 -19 -44 1 -4 10 1 23 11 31 17 14
17 14 0 9 -11 -4 -16 -2 -12 5 4 6 13 8 21 5 8 -3 14 -1 14 4 0 6 -6 10 -14
10 -8 0 -17 7 -20 16 -7 18 1 37 13 29 5 -2 13 7 19 20 7 15 8 26 2 30 -9 6
-14 -8 -11 -27 0 -5 -3 -8 -9 -8 -9 0 -12 8 -9 26 0 4 -5 10 -12 15 -15 9 -20
49 -6 46 5 -1 12 4 14 11 3 7 1 12 -4 11 -19 -3 -33 2 -33 12 0 5 4 8 9 5 5
-4 11 -1 13 6 3 8 9 8 24 -1 19 -12 19 -12 -1 -7 l-20 6 20 -15 c11 -9 19 -18
18 -20 -2 -3 -2 -7 -2 -10 1 -3 3 -9 4 -15 1 -5 3 -15 4 -21 0 -5 5 -8 9 -5
12 7 7 77 -6 85 -6 4 -9 19 -6 35 3 18 1 25 -6 21 -6 -4 -9 -14 -6 -22 4 -9 2
-11 -6 -7 -6 4 -9 3 -6 -2 4 -5 -5 -10 -18 -10 -22 -2 -28 4 -21 24 1 4 6 6
10 4 5 -1 6 2 2 7 -3 6 -12 8 -19 5 -8 -3 -17 -1 -21 5 -4 7 4 11 19 11 14 0
26 -4 26 -8 0 -5 7 -9 15 -9 8 0 15 4 15 9 0 4 -5 8 -10 8 -7 0 -7 6 0 20 8
16 8 20 -3 20 -9 0 -14 10 -13 28 2 30 -12 55 -25 46 -5 -3 -6 2 -3 11 4 8 1
22 -6 30 -7 8 -9 15 -4 15 5 0 1 5 -9 11 -9 6 -15 14 -12 20 4 5 -1 16 -9 25
-9 9 -14 19 -11 23 7 13 -42 54 -57 47 -7 -4 -6 -1 3 5 15 11 14 14 -5 36 -12
14 -21 28 -21 31 0 12 -35 57 -36 47 -2 -30 -9 -49 -21 -56 -19 -13 0 -11 23
2 19 10 20 9 9 -11 -7 -13 -8 -20 -2 -16 6 3 14 1 18 -5 4 -8 9 -7 15 2 6 10
8 7 6 -9 -2 -26 -12 -29 -21 -6 -3 8 -10 13 -15 9 -6 -3 -19 2 -30 12 -19 16
-20 18 -3 36 16 18 16 19 -3 16 -11 -2 -24 -8 -28 -14 -5 -6 -7 -3 -3 8 5 15
-4 22 -26 18 -5 0 -8 8 -8 20 0 11 -4 17 -10 14 -5 -3 -15 6 -22 20 -7 15 -17
24 -25 21 -8 -3 -12 -2 -9 3 3 5 -1 12 -10 15 -9 3 -12 11 -8 18 5 7 2 9 -8 5
-19 -7 -18 17 2 36 10 10 11 9 5 -2 -5 -9 -4 -12 3 -7 16 10 25 -13 12 -29
-13 -16 -3 -20 15 -7 19 14 16 40 -5 47 -12 4 -19 9 -16 13 9 8 -45 62 -56 56
-5 -3 -15 2 -23 12 -7 11 -16 16 -20 12 -3 -3 -20 7 -36 23 -17 16 -34 27 -40
24 -5 -4 -9 0 -10 7 0 7 -4 4 -8 -7 -11 -26 -5 -31 16 -14 14 12 16 12 8 0 -6
-10 -4 -12 5 -6 9 5 11 4 6 -4 -4 -6 -12 -8 -18 -5 -7 4 -8 2 -4 -5 4 -6 12
-9 17 -6 5 4 9 -1 9 -9 0 -10 -6 -13 -15 -10 -8 4 -15 11 -15 16 0 6 -7 7 -16
4 -8 -3 -12 -2 -9 3 3 5 1 12 -5 16 -5 3 -10 12 -10 18 0 7 4 6 10 -3 6 -9 10
-10 10 -3 0 6 -5 15 -10 18 -6 4 -8 9 -6 13 2 4 -463 7 -1034 7 -826 0 -1036
-3 -1033 -12z m67 -9 c3 -9 -1 -11 -11 -7 -10 4 -14 2 -10 -4 3 -5 0 -10 -8
-10 -8 0 -15 4 -15 9 0 4 5 8 11 8 5 0 8 4 5 8 -3 5 1 9 9 9 8 0 16 -6 19 -13z
m59 2 c3 -6 -6 -11 -18 -11 -12 0 -21 5 -18 11 2 6 10 11 18 11 8 0 16 -5 18
-11z m37 0 c-7 -7 -13 -7 -20 0 -6 6 -3 10 10 10 13 0 16 -4 10 -10z m50 4 c0
-4 7 -7 15 -7 8 0 15 3 15 7 0 3 11 6 24 6 14 0 22 -4 20 -8 -3 -5 -10 -6 -15
-3 -5 4 -9 2 -9 -2 0 -5 -20 -9 -44 -8 -27 0 -42 4 -39 11 4 11 33 15 33 4z
m120 -2 c0 -5 6 -6 13 -2 6 4 9 3 4 -1 -11 -13 -55 -12 -50 1 5 13 33 15 33 2z
m74 0 c-3 -5 -10 -6 -15 -3 -5 4 -9 1 -9 -5 0 -6 -4 -8 -10 -5 -18 11 -11 21
14 21 14 0 22 -4 20 -8z m46 2 c0 -4 7 -7 15 -7 8 0 15 3 15 7 0 3 11 6 24 6
14 0 22 -4 20 -8 -3 -5 -10 -6 -15 -3 -5 4 -9 2 -9 -2 0 -5 -20 -9 -44 -8 -27
0 -42 4 -39 11 4 11 33 15 33 4z m120 -2 c0 -5 6 -6 13 -2 6 4 9 3 4 -1 -11
-13 -55 -12 -50 1 5 13 33 15 33 2z m74 0 c-3 -5 -10 -6 -15 -3 -5 4 -9 1 -9
-5 0 -6 -4 -8 -10 -5 -18 11 -11 21 14 21 14 0 22 -4 20 -8z m46 2 c0 -4 7 -7
15 -7 8 0 15 3 15 7 0 3 11 6 24 6 14 0 22 -4 20 -8 -3 -5 -10 -6 -15 -3 -5 4
-9 2 -9 -2 0 -5 -20 -9 -44 -8 -27 0 -42 4 -39 11 4 11 33 15 33 4z m120 -2
c0 -5 6 -6 13 -2 6 4 9 3 4 -1 -11 -13 -55 -12 -50 1 5 13 33 15 33 2z m74 0
c-3 -5 -10 -6 -15 -3 -5 4 -9 1 -9 -5 0 -6 -4 -8 -10 -5 -18 11 -11 21 14 21
14 0 22 -4 20 -8z m46 2 c0 -4 7 -7 15 -7 8 0 15 3 15 7 0 3 11 6 24 6 14 0
22 -4 20 -8 -3 -5 -10 -6 -15 -3 -5 4 -9 2 -9 -2 0 -5 -20 -9 -44 -8 -27 0
-42 4 -39 11 4 11 33 15 33 4z m120 -2 c0 -5 6 -6 13 -2 6 4 9 3 4 -1 -11 -13
-55 -12 -50 1 5 13 33 15 33 2z m74 0 c-3 -5 -10 -6 -15 -3 -5 4 -9 1 -9 -5 0
-6 -4 -8 -10 -5 -18 11 -11 21 14 21 14 0 22 -4 20 -8z m46 2 c0 -4 7 -7 15
-7 8 0 15 3 15 7 0 3 11 6 24 6 14 0 22 -4 20 -8 -3 -5 -10 -6 -15 -3 -5 4 -9
2 -9 -2 0 -5 -20 -9 -44 -8 -27 0 -42 4 -39 11 4 11 33 15 33 4z m120 -2 c0
-5 6 -6 13 -2 6 4 9 3 4 -1 -11 -13 -55 -12 -50 1 5 13 33 15 33 2z m74 0 c-3
-5 -10 -6 -15 -3 -5 4 -9 1 -9 -5 0 -6 -4 -8 -10 -5 -18 11 -11 21 14 21 14 0
22 -4 20 -8z m46 2 c0 -4 7 -7 15 -7 8 0 15 3 15 7 0 3 11 6 24 6 14 0 22 -4
20 -8 -3 -5 -10 -6 -15 -3 -5 4 -9 2 -9 -2 0 -5 -20 -9 -44 -8 -27 0 -42 4
-39 11 4 11 33 15 33 4z m120 -2 c0 -5 6 -6 13 -2 6 4 9 3 4 -1 -11 -13 -55
-12 -50 1 5 13 33 15 33 2z m74 0 c-3 -5 -10 -6 -15 -3 -5 4 -9 1 -9 -5 0 -6
-4 -8 -10 -5 -18 11 -11 21 14 21 14 0 22 -4 20 -8z m46 2 c0 -4 7 -7 15 -7 8
0 15 3 15 7 0 3 11 6 24 6 14 0 22 -4 20 -8 -3 -5 -10 -6 -15 -3 -5 4 -9 2 -9
-2 0 -5 -20 -9 -44 -8 -27 0 -42 4 -39 11 4 11 33 15 33 4z m120 -2 c0 -5 6
-6 13 -2 6 4 9 3 4 -1 -11 -13 -55 -12 -50 1 5 13 33 15 33 2z m74 0 c-3 -5
-10 -6 -15 -3 -5 4 -9 1 -9 -5 0 -6 -4 -8 -10 -5 -18 11 -11 21 14 21 14 0 22
-4 20 -8z m46 2 c0 -4 7 -7 15 -7 8 0 15 3 15 7 0 3 11 6 24 6 14 0 22 -4 20
-8 -3 -5 -10 -6 -15 -3 -5 4 -9 2 -9 -2 0 -5 -20 -9 -44 -8 -27 0 -42 4 -39
11 4 11 33 15 33 4z m120 -2 c0 -5 9 -4 19 2 24 12 31 2 20 -25 -6 -16 -8 -17
-8 -3 -1 13 -9 17 -35 14 -22 -1 -32 2 -30 9 6 14 34 16 34 3z m154 -64 c3 -9
10 -13 15 -9 5 3 16 -4 24 -16 10 -14 17 -17 22 -9 5 8 15 4 31 -11 l25 -23
-23 -18 c-13 -10 -27 -18 -32 -18 -6 0 -1 7 10 15 16 13 16 14 2 9 -11 -4 -18
-1 -18 6 0 6 -4 9 -8 6 -5 -3 -15 6 -23 20 -12 23 -14 24 -20 7 -7 -16 -8 -17
-8 0 -1 9 -6 17 -12 17 -6 0 -9 6 -6 14 3 7 0 19 -6 25 -9 9 -8 11 5 6 9 -4
19 -13 22 -21z m305 -257 c8 -10 7 -14 -2 -14 -8 0 -14 6 -14 14 0 7 1 13 2
13 2 0 8 -6 14 -13z m-2448 -29 c24 4 33 -28 12 -45 -17 -14 -17 -14 0 -9 11
4 16 2 12 -5 -4 -6 -13 -8 -21 -5 -8 3 -14 1 -14 -4 0 -6 6 -10 14 -10 8 0 17
-7 20 -16 7 -18 -1 -37 -13 -29 -5 2 -13 -7 -19 -20 -7 -15 -8 -26 -2 -30 9
-6 14 8 11 28 -2 12 17 8 22 -5 6 -18 -3 -39 -14 -32 -5 3 -9 1 -9 -5 0 -5 5
-11 12 -13 18 -6 17 -58 -2 -58 -12 -1 -12 -2 2 -11 9 -5 15 -16 12 -24 -4 -8
-10 -13 -14 -10 -4 3 -10 -1 -13 -9 -3 -8 1 -13 10 -12 11 1 16 -8 17 -26 1
-18 -3 -28 -12 -28 -7 0 -10 -5 -7 -10 4 -6 11 -7 17 -4 7 4 8 2 4 -5 -4 -6
-12 -9 -17 -6 -11 7 -11 3 -3 -20 6 -13 9 -14 15 -3 6 9 8 5 6 -12 -2 -14 -10
-25 -18 -25 -8 0 -21 -9 -30 -19 -13 -16 -16 -17 -16 -3 0 9 4 14 9 11 4 -3 8
0 8 5 0 6 -6 11 -12 11 -8 0 -9 3 -3 8 15 11 17 32 3 32 -7 1 -2 7 11 14 15 8
20 16 12 20 -6 4 -11 2 -11 -3 0 -6 -5 -11 -11 -11 -8 0 -9 4 0 13 6 8 7 18 3
23 -4 4 0 3 9 -4 14 -10 18 -10 23 3 4 11 2 14 -7 10 -6 -4 -3 1 7 9 22 18 14
21 -14 6 -13 -7 -21 -7 -26 2 -4 6 -3 8 3 5 6 -4 13 0 16 8 4 10 1 12 -11 9
-9 -3 -1 4 18 15 23 13 28 20 15 18 -11 -1 -27 -7 -35 -12 -12 -7 -13 -6 -3 7
7 8 10 18 6 22 -4 4 -8 18 -9 31 0 17 3 22 15 17 13 -5 14 -3 3 10 -14 18 -25
61 -13 54 4 -3 8 17 7 44 0 27 -3 47 -6 45 -4 -2 -7 2 -7 10 0 10 4 12 12 5 7
-5 15 -7 18 -3 4 3 -1 11 -10 18 -19 14 -28 49 -10 38 7 -4 19 -6 28 -5z
m2463 -63 c10 -8 23 -12 27 -9 5 3 9 0 9 -6 0 -6 4 -9 9 -6 5 3 14 -1 20 -8 8
-10 9 -16 1 -21 -6 -4 -2 -14 12 -25 13 -11 19 -19 15 -20 -5 0 1 -13 11 -28
14 -19 18 -32 11 -44 -10 -18 4 -34 20 -23 5 3 12 1 16 -5 3 -6 -1 -13 -11
-17 -15 -6 -15 -7 2 -20 18 -13 17 -14 -8 -9 -39 7 -48 14 -41 33 4 11 3 14
-5 9 -11 -7 -16 5 -13 30 1 7 -5 14 -13 17 -10 4 -13 15 -10 33 4 24 3 26 -11
14 -9 -7 -15 -9 -13 -4 1 5 -4 20 -11 33 -13 23 -12 24 10 18 23 -6 23 -5 5 8
-10 8 -23 12 -29 8 -6 -3 -7 -1 -3 5 4 6 14 9 24 6 15 -5 15 -5 -1 6 -9 6 -21
8 -27 5 -5 -3 -14 4 -20 15 -12 23 -3 25 24 5z m146 -259 c22 -4 9 -20 -17
-22 -15 0 -19 4 -15 14 3 10 1 13 -6 8 -7 -4 -12 -2 -12 4 0 8 7 9 18 5 9 -4
24 -8 32 -9z m66 -142 c1 -9 0 -13 -4 -10 -3 4 -7 14 -8 22 -1 9 0 13 4 10 3
-4 7 -14 8 -22z m-1686 -58 c-13 -13 -40 -16 -40 -5 0 6 -7 6 -17 1 -10 -5
-23 -7 -30 -5 -6 2 -15 -1 -19 -8 -5 -9 -2 -10 12 -6 18 7 18 6 2 -7 -20 -15
-24 -31 -5 -20 8 5 8 2 -2 -9 -7 -9 -10 -17 -5 -17 4 0 3 -5 -4 -12 -19 -19
-14 -29 7 -16 10 6 17 17 15 23 -3 6 -1 22 4 36 9 23 13 24 113 25 142 2 149
3 149 13 0 10 -19 9 -36 -2 -7 -4 -14 -1 -17 6 -3 8 7 12 33 12 32 1 36 -2 32
-20 -4 -20 -4 -20 12 1 11 15 23 20 41 17 14 -3 25 -10 25 -15 0 -5 -4 -6 -10
-3 -5 3 -10 1 -10 -5 0 -7 7 -10 15 -6 8 3 19 -3 25 -12 8 -15 11 -15 20 -2
15 23 12 34 -5 20 -8 -7 -15 -11 -16 -9 -6 30 -5 37 5 35 22 -3 37 -18 32 -32
-3 -7 0 -16 6 -20 7 -4 8 -3 4 4 -4 7 -3 12 3 12 6 0 15 -9 21 -19 6 -13 17
-17 30 -14 14 4 20 1 18 -8 -2 -7 6 -14 17 -15 11 0 31 -5 45 -9 22 -7 23 -6
11 8 -9 12 -23 15 -45 11 -29 -5 -30 -4 -11 10 l20 15 -20 0 c-48 -1 -72 12
-59 32 5 9 11 7 20 -6 8 -10 17 -15 21 -12 3 4 17 0 30 -8 14 -10 36 -14 54
-11 16 2 27 1 24 -4 -3 -4 2 -11 11 -14 9 -3 12 -11 8 -18 -5 -7 -2 -9 8 -5
11 4 15 1 13 -11 -2 -9 -4 -21 -4 -25 -1 -5 -5 -6 -10 -2 -5 3 -13 0 -17 -6
-4 -7 -3 -10 2 -8 11 6 64 -48 56 -56 -4 -3 2 -3 12 1 14 5 17 4 12 -4 -4 -7
-1 -12 7 -12 13 0 26 -23 23 -41 -1 -4 7 -16 17 -27 10 -11 20 -26 21 -34 2
-7 6 -21 11 -31 4 -9 5 -33 3 -52 -2 -19 0 -35 4 -35 8 0 12 16 9 34 -1 5 4 4
12 -3 12 -9 16 -8 21 4 3 9 2 14 -3 11 -5 -3 -14 1 -20 8 -10 11 -8 17 6 26
17 11 17 11 0 6 -12 -4 -16 -2 -11 6 5 7 3 8 -6 3 -9 -6 -11 -4 -5 5 5 8 4 11
-3 6 -11 -7 -11 12 1 31 4 7 0 16 -9 21 -9 5 -15 12 -15 15 3 22 -1 29 -13 24
-9 -4 -12 2 -10 20 2 17 -2 23 -12 19 -7 -3 -18 3 -23 12 -5 9 -12 16 -15 15
-12 -6 -26 -3 -25 5 1 4 1 14 0 22 -1 13 -2 13 -11 0 -5 -8 -10 -10 -10 -4 0
18 26 35 44 28 9 -3 16 -12 16 -18 0 -7 11 -19 25 -26 13 -7 22 -17 19 -22 -3
-4 0 -8 6 -8 7 0 9 -7 6 -16 -5 -13 -4 -14 7 -5 11 8 17 7 29 -7 8 -9 14 -24
13 -32 0 -8 6 -20 15 -27 10 -9 11 -12 3 -13 -7 0 -13 -4 -13 -9 0 -6 9 -8 21
-6 17 3 19 1 9 -10 -8 -9 -8 -15 0 -20 6 -3 8 -11 4 -16 -3 -5 -10 -6 -16 -3
-6 4 -8 1 -6 -7 3 -8 10 -13 15 -12 5 1 9 -7 9 -18 0 -10 -6 -19 -14 -19 -7 0
-10 -5 -7 -10 4 -6 12 -8 18 -4 7 3 3 -2 -7 -10 -17 -14 -16 -20 4 -18 3 0 7
-8 7 -19 2 -19 -7 -23 -36 -19 -12 1 -13 -1 -2 -13 8 -11 9 -17 1 -22 -6 -3
-8 -10 -5 -15 3 -4 -2 -13 -9 -19 -21 -17 -30 4 -10 23 8 9 11 16 5 16 -13 0
-34 -38 -27 -49 7 -11 -24 -52 -35 -46 -5 4 -9 1 -9 -4 0 -6 -16 -27 -35 -47
-28 -29 -36 -33 -41 -20 -8 21 -25 10 -17 -12 7 -18 5 -17 -17 12 -12 16 -12
18 -1 11 10 -6 12 -4 6 5 -5 8 -4 11 3 6 6 -3 13 -2 17 4 10 16 -21 12 -35 -5
-7 -8 -16 -12 -21 -9 -5 3 -9 0 -9 -6 0 -6 -5 -8 -11 -4 -8 5 -8 1 0 -13 6
-11 7 -23 4 -27 -3 -3 -2 -6 4 -6 18 0 23 13 10 28 -9 13 -9 14 1 8 7 -4 12
-2 12 5 0 22 11 2 14 -25 2 -14 -1 -23 -6 -20 -5 3 -18 -2 -28 -11 -17 -15
-19 -15 -29 2 -6 10 -11 12 -11 6 0 -7 -7 -13 -16 -13 -10 0 -14 -6 -11 -14 6
-15 -9 -16 -32 -2 -11 7 -13 4 -9 -12 5 -18 3 -20 -10 -13 -12 7 -22 5 -33 -5
-22 -19 -123 -28 -106 -9 7 7 16 10 22 7 5 -3 18 -7 27 -7 14 -1 17 3 12 19
-6 21 -6 21 11 1 9 -11 14 -15 11 -9 -3 7 2 11 12 10 12 -1 16 5 14 19 l-4 20
16 -20 c12 -15 15 -16 10 -3 -4 12 -1 16 13 14 10 -2 24 4 31 13 8 9 10 10 7
3 -6 -12 -3 -12 16 -1 13 7 27 13 31 14 22 1 16 15 -6 15 -16 0 -25 -4 -21
-10 4 -7 -3 -9 -19 -6 -14 3 -26 0 -26 -5 0 -5 -3 -8 -7 -8 -33 5 -53 -3 -53
-21 0 -16 -4 -19 -17 -12 -20 10 -46 5 -38 -8 3 -5 -22 -7 -55 -6 -33 1 -60
-2 -60 -7 0 -4 -5 -5 -11 -1 -7 4 -9 0 -5 -14 4 -11 2 -23 -3 -27 -7 -3 -8 0
-5 9 4 11 0 16 -10 16 -9 0 -27 7 -40 15 -21 14 -24 14 -29 1 -4 -10 0 -14 12
-11 14 3 17 -1 14 -16 -3 -10 -9 -19 -13 -19 -9 0 -24 31 -22 43 2 7 -4 9 -52
11 -16 1 -31 7 -34 14 -2 7 -8 10 -12 7 -5 -3 -16 5 -24 17 -9 12 -19 18 -23
14 -4 -4 -2 -11 6 -15 7 -5 13 -12 13 -17 0 -5 4 -8 9 -6 5 1 9 -3 9 -9 0 -5
5 -7 12 -3 6 4 8 3 5 -3 -4 -6 7 -9 28 -8 35 3 54 -8 36 -19 -5 -4 -12 -2 -16
4 -3 5 -11 10 -16 10 -6 0 -7 -6 -3 -12 5 -9 2 -9 -9 1 -12 10 -17 10 -17 1 0
-6 -5 -10 -11 -8 -6 2 -10 7 -9 12 3 16 -24 25 -40 13 -12 -9 -13 -9 -3 2 13
15 6 44 -8 35 -5 -3 -6 -11 -2 -17 4 -8 1 -7 -9 1 -13 10 -17 10 -21 0 -3 -7
-4 -3 -4 9 1 12 5 19 9 17 10 -6 11 10 1 19 -9 10 -10 66 0 60 9 -5 9 11 0 20
-12 13 -9 65 5 60 6 -3 12 -1 12 5 0 6 -5 12 -12 14 -6 2 -12 18 -12 35 -1 17
2 29 7 26 9 -5 9 11 0 20 -12 13 -9 65 5 60 6 -3 12 -1 12 5 0 6 -5 12 -12 14
-6 2 -12 18 -12 35 -1 17 2 29 7 26 9 -5 9 11 0 20 -12 13 -9 65 5 60 6 -3 12
-1 12 5 0 6 -5 12 -12 14 -6 2 -12 18 -12 35 -1 17 2 29 7 26 9 -5 9 11 0 20
-12 13 -9 65 5 60 6 -3 12 -1 12 5 0 5 -8 13 -17 17 -17 6 -17 7 0 19 20 15
23 27 5 24 -17 -4 -17 24 1 42 10 10 35 15 82 15 43 0 64 -4 59 -9z m48 1 c9
-10 6 -13 -13 -13 -19 0 -22 3 -13 13 6 7 12 13 13 13 1 0 7 -6 13 -13z m64
-5 c9 -9 6 -10 -12 -7 -13 2 -27 8 -32 13 -5 5 0 8 12 7 11 -1 26 -7 32 -13z
m-1122 -143 c0 -5 -4 -9 -8 -9 -5 0 -9 7 -9 15 0 8 4 12 9 9 4 -3 8 -9 8 -15z
m2717 -24 c0 -8 -4 -12 -9 -9 -4 3 -8 0 -8 -5 0 -6 6 -11 13 -11 7 0 8 -3 2
-8 -15 -11 -17 -32 -2 -32 6 -1 1 -7 -12 -14 -15 -8 -20 -16 -12 -20 6 -4 11
-2 11 3 0 6 5 11 11 11 8 0 9 -4 0 -13 -6 -8 -7 -18 -3 -23 4 -4 0 -3 -9 4
-14 10 -18 10 -23 -3 -4 -11 -2 -14 7 -10 6 4 3 -1 -7 -9 -22 -18 -14 -21 14
-6 13 7 21 7 26 -2 4 -6 3 -8 -3 -5 -6 4 -13 0 -16 -8 -4 -10 -1 -12 11 -9 9
3 1 -4 -18 -15 -23 -13 -28 -20 -15 -18 11 1 27 6 35 11 12 7 13 6 3 -4 -9
-10 -9 -17 -2 -26 7 -9 6 -12 -3 -10 -29 5 -57 27 -52 41 4 8 10 13 14 10 4
-3 10 1 13 9 3 8 -1 13 -10 12 -11 -1 -16 8 -17 27 -1 17 3 27 12 27 7 0 10 5
7 10 -4 6 -11 7 -17 4 -7 -4 -8 -2 -4 5 4 6 12 9 17 6 11 -7 11 -3 3 20 -6 13
-9 14 -15 3 -6 -9 -8 -5 -6 12 2 14 10 25 18 25 8 0 20 8 27 18 16 21 19 21
19 2z m-1041 -93 c-3 -3 0 -12 6 -21 10 -13 10 -14 -2 -4 -16 15 -23 46 -8 37
5 -3 7 -9 4 -12z m972 -409 c-5 -7 -14 -10 -19 -7 -16 10 -9 23 10 21 15 -1
17 -4 9 -14z m-2627 -85 c24 4 33 -28 12 -45 -17 -14 -17 -14 0 -9 11 4 16 2
12 -5 -4 -6 -13 -8 -21 -5 -8 3 -14 1 -14 -4 0 -6 6 -10 14 -10 8 0 17 -7 20
-16 7 -18 -1 -37 -13 -29 -5 2 -13 -7 -19 -20 -7 -15 -8 -26 -2 -30 9 -6 14 8
11 28 -2 12 17 8 22 -5 6 -18 -3 -39 -14 -32 -5 3 -9 1 -9 -5 0 -5 5 -11 12
-13 18 -6 17 -58 -2 -58 -12 -1 -12 -2 2 -11 9 -5 15 -16 12 -24 -4 -8 -10
-13 -14 -10 -4 3 -10 -1 -13 -9 -3 -8 1 -13 10 -12 11 1 16 -8 17 -26 1 -18
-3 -28 -12 -28 -7 0 -10 -5 -7 -10 4 -6 11 -7 17 -4 7 4 8 2 4 -5 -4 -6 -12
-9 -17 -6 -11 7 -11 3 -3 -20 6 -13 9 -14 15 -3 6 9 8 5 6 -12 -2 -14 -10 -25
-18 -25 -8 0 -21 -9 -30 -19 -13 -16 -16 -17 -16 -3 0 9 4 14 9 11 4 -3 8 0 8
5 0 6 -6 11 -12 11 -8 0 -9 3 -3 8 15 11 17 32 3 32 -7 1 -2 7 11 14 15 8 20
16 12 20 -6 4 -11 2 -11 -3 0 -6 -5 -11 -11 -11 -8 0 -9 4 0 13 6 8 7 18 3 23
-4 4 0 3 9 -4 14 -10 18 -10 23 3 4 11 2 14 -7 10 -6 -4 -3 1 7 9 22 18 14 21
-14 6 -13 -7 -21 -7 -26 2 -4 6 -3 8 3 5 6 -4 13 0 16 8 4 10 1 12 -11 9 -9
-3 -1 4 18 15 23 13 28 20 15 18 -11 -1 -27 -7 -35 -12 -12 -7 -13 -6 -3 7 7
8 10 18 6 22 -4 4 -8 18 -9 31 0 17 3 22 15 17 13 -5 14 -3 3 10 -14 18 -25
61 -13 54 4 -3 8 17 7 44 0 27 -3 47 -6 45 -4 -2 -7 2 -7 10 0 10 4 12 12 5 7
-5 15 -7 18 -3 4 3 -1 11 -10 18 -19 14 -28 49 -10 38 7 -4 19 -6 28 -5z
m2539 -27 c0 -4 -6 -8 -14 -8 -8 0 -12 6 -9 14 5 13 23 9 23 -6z m-1354 -39
c-4 -24 -46 -21 -46 4 0 11 6 14 21 9 16 -5 19 -4 14 5 -5 8 -4 11 3 7 5 -4 9
-15 8 -25z m-86 -11 c0 -4 -6 -8 -13 -8 -8 0 -14 6 -14 13 0 7 6 10 14 7 7 -3
13 -8 13 -12z m-2753 -577 c0 -7 -6 -10 -13 -7 -9 3 -12 -2 -9 -16 2 -12 -1
-21 -6 -21 -6 0 -8 -4 -4 -9 3 -5 2 -12 -3 -15 -4 -2 -8 6 -8 20 0 13 4 24 9
24 5 0 4 6 -2 13 -13 17 -8 23 17 23 10 0 19 -6 19 -12z m375 -2 c5 -5 0 -8
-12 -7 -11 1 -26 7 -32 13 -9 9 -6 10 12 7 13 -2 27 -8 32 -13z m46 1 c-8 -10
-14 -10 -24 -2 -18 15 -18 15 11 15 19 0 22 -3 13 -13z m240 0 c-8 -10 -14
-10 -24 -2 -18 15 -18 15 11 15 19 0 22 -3 13 -13z m62 5 c0 -5 6 -6 13 -2 6
4 9 3 4 -1 -4 -5 -21 -9 -37 -10 -21 -1 -27 2 -20 10 11 14 40 16 40 3z m910
-19 c0 -5 -4 -9 -8 -9 -5 0 -9 7 -9 15 0 8 4 12 9 9 4 -3 8 -9 8 -15z m-1655
-84 c-1 -14 -5 -28 -10 -32 -4 -5 -5 -2 -1 5 4 6 2 12 -3 12 -17 0 -6 30 14
40 1 0 0 -11 0 -25z m0 -55 c3 -5 1 -10 -5 -10 -6 0 -9 -4 -5 -9 3 -5 2 -12
-3 -15 -4 -2 -8 6 -8 20 0 25 10 32 21 14z m0 -85 c1 -25 -3 -45 -8 -45 -4 0
-6 -4 -2 -9 3 -5 2 -12 -3 -15 -4 -2 -8 6 -8 20 0 13 3 24 6 24 4 0 7 7 7 15
0 8 -4 15 -9 15 -11 0 -6 23 7 32 6 4 10 8 10 8 0 0 0 -20 0 -45z m3596 1 c-9
-5 -19 -14 -22 -19 -9 -12 -31 1 -23 14 3 5 9 7 14 4 11 -7 22 24 13 38 -3 7
3 3 14 -8 18 -18 19 -21 4 -29z m-26 24 c3 -5 1 -10 -4 -10 -6 0 -11 5 -11 10
0 6 2 10 4 10 3 0 8 -4 11 -10z m79 -68 c3 -5 -1 -9 -9 -9 -8 0 -12 4 -9 9 3
4 7 8 9 8 2 0 6 -4 9 -8z m-1973 -24 c24 4 33 -28 12 -45 -17 -14 -17 -14 0
-9 11 4 16 2 12 -5 -4 -6 -13 -8 -21 -5 -8 3 -14 1 -14 -4 0 -6 6 -10 14 -10
8 0 17 -7 20 -16 7 -18 -1 -37 -13 -29 -5 2 -13 -7 -19 -20 -7 -15 -8 -26 -2
-30 9 -6 14 8 11 28 -2 12 17 8 22 -5 6 -18 -3 -39 -14 -32 -5 3 -9 1 -9 -5 0
-5 5 -11 12 -13 18 -6 17 -58 -2 -58 -12 -1 -12 -2 2 -11 9 -5 15 -16 12 -24
-4 -8 -10 -13 -14 -10 -4 3 -10 -1 -13 -9 -3 -8 1 -13 10 -12 11 1 16 -8 17
-26 1 -18 -3 -28 -12 -28 -7 0 -10 -5 -7 -10 4 -6 11 -7 17 -4 7 4 8 2 4 -5
-4 -6 -12 -9 -17 -6 -11 7 -11 3 -3 -20 6 -13 9 -14 15 -3 6 9 8 5 5 -12 -2
-16 -9 -24 -20 -24 -9 1 -16 -2 -16 -7 0 -5 6 -9 14 -9 22 0 28 -31 9 -47 -17
-14 -17 -14 0 -9 11 4 16 2 12 -5 -4 -6 -13 -8 -21 -5 -8 3 -14 1 -14 -4 0 -6
6 -10 14 -10 8 0 16 -6 19 -14 9 -23 1 -51 -14 -51 -8 0 -21 -9 -30 -19 -13
-16 -16 -17 -16 -3 0 9 4 14 9 11 4 -3 8 0 8 5 0 6 -6 11 -12 11 -8 0 -9 3 -3
8 12 8 18 75 6 68 -4 -3 -8 1 -8 9 0 10 4 12 12 5 7 -5 15 -7 18 -3 4 3 -1 11
-10 18 -17 13 -28 50 -12 39 5 -3 9 0 9 5 0 6 -6 11 -12 11 -8 0 -9 3 -3 8 15
11 17 32 3 32 -7 1 -2 7 11 14 15 8 20 16 12 20 -6 4 -11 2 -11 -3 0 -6 -5
-11 -11 -11 -8 0 -9 4 0 13 6 8 7 18 3 23 -4 4 0 3 9 -4 14 -10 18 -10 23 3 4
11 2 14 -7 10 -6 -4 -3 1 7 9 22 18 14 21 -14 6 -13 -7 -21 -7 -26 2 -4 6 -3
8 3 5 6 -4 13 0 16 8 4 10 1 12 -11 9 -9 -3 -1 4 18 15 23 13 28 20 15 18 -11
-1 -27 -7 -35 -12 -12 -7 -13 -6 -3 7 7 8 10 18 6 22 -4 4 -8 18 -9 31 0 17 3
22 15 17 13 -5 14 -3 3 10 -14 18 -25 61 -13 54 4 -3 8 17 7 44 0 27 -3 47 -6
45 -4 -2 -7 2 -7 10 0 10 4 12 12 5 7 -5 15 -7 18 -3 4 3 -1 11 -10 18 -19 14
-28 49 -10 38 7 -4 19 -6 28 -5z m-1676 -33 c-1 -14 -5 -28 -10 -32 -4 -5 -5
-2 -1 5 4 6 2 12 -3 12 -17 0 -6 30 14 40 1 0 0 -11 0 -25z m0 -55 c3 -5 1
-10 -5 -10 -6 0 -9 -4 -5 -9 3 -5 2 -12 -3 -15 -4 -2 -8 6 -8 20 0 25 10 32
21 14z m0 -85 c1 -25 -3 -45 -8 -45 -4 0 -6 -4 -2 -9 3 -5 2 -12 -3 -15 -4 -2
-8 6 -8 20 0 13 3 24 6 24 4 0 7 7 7 15 0 8 -4 15 -9 15 -11 0 -6 23 7 32 6 4
10 8 10 8 0 0 0 -20 0 -45z m0 -100 c-1 -14 -5 -28 -10 -32 -4 -5 -5 -2 -1 5
4 6 2 12 -3 12 -17 0 -6 30 14 40 1 0 0 -11 0 -25z m0 -55 c3 -5 1 -10 -5 -10
-6 0 -9 -4 -5 -9 3 -5 2 -12 -3 -15 -4 -2 -8 6 -8 20 0 25 10 32 21 14z m0
-85 c1 -25 -3 -45 -8 -45 -4 0 -6 -4 -2 -9 3 -5 2 -12 -3 -15 -4 -2 -8 6 -8
20 0 13 3 24 6 24 4 0 7 7 7 15 0 8 -4 15 -9 15 -11 0 -6 23 7 32 6 4 10 8 10
8 0 0 0 -20 0 -45z m2703 -12 c-8 -10 -14 -10 -24 -2 -15 12 -9 33 7 24 5 -4
9 0 9 7 0 10 3 9 10 -2 5 -9 5 -19 -2 -27z m-2703 -88 c-1 -14 -5 -28 -10 -32
-4 -5 -5 -2 -1 5 4 6 2 12 -3 12 -17 0 -6 30 14 40 1 0 0 -11 0 -25z m3979
-28 c-2 -7 4 -21 15 -31 22 -20 19 -39 -5 -29 -9 3 -14 0 -12 -7 2 -7 -4 -14
-14 -15 -12 -2 -15 3 -12 21 3 18 0 24 -13 25 -16 0 -15 2 2 9 11 5 16 9 10
10 -5 0 -1 7 9 15 24 18 27 19 20 2z m-3979 -27 c3 -5 1 -10 -5 -10 -6 0 -9
-4 -5 -9 3 -5 2 -12 -3 -15 -4 -2 -8 6 -8 20 0 25 10 32 21 14z m2532 -26 c-9
-9 -28 6 -21 18 4 6 10 6 17 -1 6 -6 8 -13 4 -17z m-2532 -59 c1 -25 -3 -45
-8 -45 -4 0 -6 -4 -2 -9 3 -5 2 -12 -3 -15 -4 -2 -8 6 -8 20 0 13 3 24 6 24 4
0 7 7 7 15 0 8 -4 15 -9 15 -11 0 -6 23 7 32 6 4 10 8 10 8 0 0 0 -20 0 -45z
m0 -100 c-1 -14 -5 -28 -10 -32 -4 -5 -5 -2 -1 5 4 6 2 12 -3 12 -17 0 -6 30
14 40 1 0 0 -11 0 -25z m0 -55 c3 -5 1 -10 -5 -10 -6 0 -9 -4 -5 -9 3 -5 2
-12 -3 -15 -4 -2 -8 6 -8 20 0 25 10 32 21 14z m0 -85 c1 -25 -3 -45 -8 -45
-4 0 -6 -4 -2 -9 3 -5 2 -12 -3 -15 -4 -2 -8 6 -8 20 0 13 3 24 6 24 4 0 7 7
7 15 0 8 -4 15 -9 15 -11 0 -6 23 7 32 6 4 10 8 10 8 0 0 0 -20 0 -45z m927
13 c18 1 34 -28 21 -37 -4 -3 -9 -14 -11 -25 -2 -13 0 -16 10 -10 17 11 38 14
38 6 0 -4 -9 -13 -19 -19 -17 -11 -23 -8 -48 23 -15 20 -27 43 -25 51 2 9 -1
12 -7 8 -6 -3 -11 -1 -11 5 0 8 7 9 18 5 9 -4 25 -7 34 -7z m-927 -113 c-1
-14 -5 -28 -10 -32 -4 -5 -5 -2 -1 5 4 6 2 12 -3 12 -17 0 -6 30 14 40 1 0 0
-11 0 -25z m989 0 c-3 -7 -12 -11 -20 -8 -11 4 -12 9 -3 19 14 17 30 9 23 -11z
m101 -45 c10 -11 16 -20 13 -20 -3 0 -13 9 -23 20 -10 11 -16 20 -13 20 3 0
13 -9 23 -20z m-1090 -10 c3 -5 1 -10 -5 -10 -6 0 -9 -4 -5 -9 3 -5 2 -12 -3
-15 -4 -2 -8 6 -8 20 0 25 10 32 21 14z m1415 -20 c0 -5 -5 -10 -11 -10 -5 0
-7 5 -4 10 3 6 8 10 11 10 2 0 4 -4 4 -10z m-48 -17 c-11 -4 -11 -7 0 -17 7
-6 11 -10 9 -9 -2 2 -10 -2 -18 -9 -11 -9 -12 -7 -7 8 5 17 4 17 -8 4 -14 -16
-32 -20 -43 -8 -4 4 -16 3 -26 -2 -18 -10 -38 4 -25 17 3 4 6 1 6 -6 0 -7 5
-9 12 -5 7 4 26 8 43 9 16 0 29 5 28 11 -1 5 8 10 20 11 12 0 16 -1 9 -4z
m-1367 -48 c1 -25 -3 -45 -8 -45 -4 0 -6 -4 -2 -9 3 -5 2 -12 -3 -15 -4 -2 -8
6 -8 20 0 13 3 24 6 24 4 0 7 7 7 15 0 8 -4 15 -9 15 -11 0 -6 23 7 32 6 4 10
8 10 8 0 0 0 -20 0 -45z m0 -100 c-1 -14 -5 -28 -10 -32 -4 -5 -5 -2 -1 5 4 6
2 12 -3 12 -17 0 -6 30 14 40 1 0 0 -11 0 -25z m0 -55 c3 -5 1 -10 -5 -10 -6
0 -9 -4 -5 -9 3 -5 2 -12 -3 -15 -4 -2 -8 6 -8 20 0 25 10 32 21 14z m4472
-410 c-1 -21 -10 -18 -13 5 -1 8 2 15 6 15 5 0 8 -9 7 -20z m-4263 -36 c2 -10
9 -20 16 -22 7 -3 10 0 6 7 -11 18 2 13 29 -11 26 -22 20 -48 -10 -44 -21 3
-85 67 -79 78 3 4 10 6 15 3 5 -4 9 -1 9 6 0 18 11 4 14 -17z m134 -77 c16 6
15 -7 -3 -30 -13 -18 -14 -17 -30 7 -10 15 -22 23 -29 19 -6 -4 -5 1 3 10 12
15 16 16 30 4 9 -8 22 -12 29 -10z m38 -29 c4 -6 3 -8 -4 -4 -6 3 -13 2 -16
-3 -7 -11 19 -23 29 -13 3 4 19 7 35 8 22 1 27 -3 22 -15 -4 -13 -1 -12 16 3
20 17 22 18 28 2 5 -14 9 -15 15 -4 4 7 21 13 37 14 23 1 28 -3 28 -23 0 -12
-4 -23 -8 -23 -5 0 -8 7 -6 16 2 10 -2 19 -9 21 -7 3 -11 -3 -8 -15 4 -23 -32
-23 -49 0 -9 12 -14 13 -23 3 -7 -7 -10 -16 -7 -19 2 -3 -2 -2 -8 4 -16 13
-31 13 -22 -1 3 -6 -4 -5 -17 3 -13 8 -31 14 -39 13 -21 -1 -31 17 -18 32 13
16 15 16 24 1z m662 -25 c-6 -8 -7 -13 0 -13 5 0 15 7 22 15 9 11 16 12 25 5
6 -5 15 -7 19 -3 14 14 63 11 63 -3 0 -8 -5 -14 -10 -14 -6 0 -7 -3 -3 -7 4
-4 16 3 27 17 11 15 17 18 13 8 -3 -10 -1 -18 5 -18 6 0 11 6 11 14 0 8 9 14
20 13 10 -1 17 -3 15 -6 -3 -2 2 -12 10 -20 13 -15 8 -17 -55 -17 -38 0 -66 4
-64 8 8 13 -11 9 -25 -5 -9 -7 -11 -7 -8 -1 9 16 -18 25 -32 11 -19 -19 -50
-16 -46 5 3 12 -1 18 -8 15 -7 -2 -11 -11 -9 -21 2 -9 -2 -16 -8 -16 -6 0 -9
4 -5 9 3 5 1 12 -5 16 -17 11 -3 21 29 21 24 0 28 -2 19 -13z m729 -13 c2 -11
-2 -20 -8 -20 -5 0 -8 4 -4 9 3 5 1 12 -5 16 -6 4 -8 11 -4 16 8 13 17 4 21
-21z m70 6 c-19 -27 -55 -29 -52 -2 3 25 -1 22 35 22 28 0 29 -1 17 -20z m53
-3 c0 -9 3 -13 8 -9 4 4 7 13 7 19 0 6 15 12 33 13 26 1 30 -1 21 -12 -14 -17
2 -19 19 -2 16 16 55 19 42 3 -6 -7 -6 -15 0 -21 6 -6 -20 -10 -74 -9 -46 0
-82 3 -79 8 2 4 -1 7 -8 7 -8 0 -8 4 1 15 14 17 30 11 30 -12z m1594 16 c-2
-4 0 -10 5 -13 5 -3 12 2 15 11 6 14 9 14 27 -5 22 -25 38 -30 19 -7 -14 17
-15 16 28 20 26 2 30 0 21 -11 -16 -19 0 -18 22 2 10 9 20 11 23 6 7 -12 -20
-35 -44 -37 -13 -1 -17 4 -15 17 3 12 -1 18 -8 15 -7 -2 -11 -11 -9 -20 2 -10
-4 -15 -18 -14 -11 1 -20 6 -20 12 0 5 -5 3 -10 -5 -8 -12 -10 -12 -10 -1 0 9
-4 10 -12 4 -16 -13 -48 -13 -48 0 0 5 -8 3 -17 -4 -9 -8 -14 -9 -10 -3 4 7 0
14 -8 18 -8 3 -14 2 -12 -2 1 -4 -1 -8 -5 -9 -5 -2 -8 -1 -8 2 0 3 0 10 0 16
0 6 7 9 15 6 8 -4 17 -3 19 2 3 4 18 7 35 7 16 0 28 -3 25 -7z m243 -6 c0 -7
-5 -13 -10 -13 -6 0 -7 -3 -3 -7 4 -4 16 3 28 17 11 14 17 20 14 13 -4 -6 -2
-14 4 -18 5 -3 10 1 10 9 0 8 8 14 20 13 10 -1 17 -3 15 -6 -3 -2 2 -12 10
-21 13 -14 12 -16 -8 -17 -12 0 -16 1 -9 4 6 3 10 9 7 13 -8 13 -36 0 -28 -14
3 -6 1 -6 -8 1 -14 14 -33 18 -25 5 2 -4 -19 -8 -48 -8 -51 1 -53 2 -40 22 16
23 71 29 71 7z"/>
<path d="M3880 4400 c6 -11 13 -20 16 -20 2 0 0 9 -6 20 -6 11 -13 20 -16 20
-2 0 0 -9 6 -20z"/>
<path d="M3915 4389 c-9 -13 0 -22 25 -24 19 -2 19 -1 3 17 -19 21 -20 21 -28
7z"/>
<path d="M1687 4129 c13 -12 31 -15 30 -4 -1 5 -10 10 -20 10 -10 1 -14 -2
-10 -6z"/>
<path d="M1701 4051 c-9 -6 -10 -11 -2 -15 6 -4 11 -1 11 6 0 9 3 9 10 -2 6
-9 10 -10 10 -3 0 17 -14 23 -29 14z"/>
<path d="M1691 3960 c18 -35 20 -52 4 -46 -17 6 -13 -20 5 -37 9 -8 11 -8 6 0
-3 6 -1 15 5 18 5 4 8 13 5 20 -3 8 -2 15 2 17 4 2 -4 14 -17 28 l-24 25 14
-25z"/>
<path d="M1694 3716 c0 -15 6 -22 21 -23 11 -1 14 1 8 4 -7 3 -13 11 -13 18 0
8 -4 16 -8 19 -4 2 -8 -5 -8 -18z"/>
<path d="M4216 4051 c-4 -5 -2 -12 3 -15 5 -4 12 -2 15 3 4 5 2 12 -3 15 -5 4
-12 2 -15 -3z"/>
<path d="M4200 4010 c0 -14 20 -22 20 -8 0 8 5 6 11 -5 5 -9 7 -22 4 -27 -3
-6 2 -7 12 -4 17 5 17 5 0 -9 -16 -13 -16 -15 -1 -21 9 -3 14 -12 11 -19 -3
-8 4 -19 15 -26 15 -9 18 -15 9 -21 -10 -5 -9 -9 2 -13 16 -6 17 9 2 33 -13
21 -15 40 -3 40 5 0 0 14 -12 30 -12 17 -18 30 -14 30 5 0 3 5 -2 10 -14 14
-54 21 -54 10z m70 -70 c0 -5 -2 -10 -4 -10 -3 0 -8 5 -11 10 -3 6 -1 10 4 10
6 0 11 -4 11 -10z"/>
<path d="M2575 3617 c-25 -15 -30 -36 -7 -33 9 2 17 7 17 12 0 5 4 15 8 22 10
15 8 15 -18 -1z"/>
<path d="M2916 3621 c-3 -5 1 -11 9 -15 8 -3 15 -1 15 4 0 13 -18 22 -24 11z"/>
<path d="M2566 3555 c-11 -8 -14 -15 -8 -15 20 0 26 4 28 18 3 15 3 15 -20 -3z"/>
<path d="M3185 3560 c-3 -5 -1 -12 5 -15 8 -5 7 -11 -1 -21 -9 -12 -5 -14 27
-14 28 0 35 3 24 9 -8 6 -19 7 -25 3 -5 -3 -5 1 2 9 10 12 8 17 -7 27 -11 6
-21 8 -25 2z"/>
<path d="M2605 3512 c-13 -9 -15 -82 -2 -82 5 0 4 -7 -3 -15 -6 -8 -9 -19 -6
-24 4 -5 2 -12 -3 -15 -6 -4 -8 7 -6 24 3 22 1 29 -8 23 -7 -4 -7 0 2 10 10
13 10 17 1 17 -9 0 -9 4 1 17 11 13 11 17 1 20 -6 3 -9 10 -6 15 4 7 2 8 -5 4
-6 -4 -9 -11 -6 -16 3 -5 1 -11 -5 -15 -6 -4 -7 -12 -3 -18 12 -19 12 -67 0
-67 -6 0 -2 -6 8 -14 16 -12 17 -16 6 -30 -7 -9 -10 -16 -6 -16 4 0 2 -6 -4
-13 -6 -8 -8 -17 -4 -21 12 -12 12 -66 0 -66 -6 0 -2 -6 8 -14 16 -12 17 -16
6 -30 -7 -9 -10 -16 -6 -16 4 0 2 -6 -4 -13 -6 -8 -8 -17 -4 -21 12 -12 12
-66 0 -66 -6 0 -2 -6 8 -14 16 -12 17 -16 6 -30 -7 -9 -10 -16 -6 -16 4 0 2
-6 -4 -13 -6 -8 -7 -17 -3 -21 4 -4 7 -16 7 -27 0 -21 17 -27 24 -8 2 8 -1 9
-10 3 -12 -7 -12 -5 0 9 10 13 10 17 1 17 -10 0 -10 4 1 16 10 13 10 17 0 24
-8 4 -9 10 -3 14 13 8 20 -13 17 -47 -2 -15 2 -27 7 -27 6 0 3 -9 -7 -20 -10
-11 -21 -17 -26 -15 -4 3 -10 1 -13 -4 -4 -5 -1 -13 5 -16 5 -4 8 -14 5 -24
-5 -12 -2 -11 9 3 8 11 15 23 15 28 0 4 6 6 13 4 6 -1 9 -1 5 1 -5 3 -8 9 -8
14 0 6 3 8 8 6 4 -3 7 21 7 53 0 46 -3 57 -15 53 -13 -4 -13 -3 0 9 22 19 22
158 0 151 -13 -4 -13 -3 0 9 22 19 22 158 0 151 -13 -4 -13 -3 0 9 11 9 15 34
15 86 0 39 0 72 0 72 0 0 -5 -4 -10 -8z m-5 -191 c7 -13 7 -21 2 -17 -6 4 -10
-2 -9 -14 1 -11 4 -20 7 -20 4 0 7 -7 7 -15 0 -8 -4 -12 -9 -9 -5 4 -8 0 -6
-8 2 -7 -1 -13 -7 -13 -5 0 -9 2 -8 5 1 3 5 14 9 24 6 15 4 17 -7 11 -12 -7
-12 -6 -1 7 10 13 10 17 -3 22 -9 3 -13 10 -10 16 4 6 11 8 16 5 5 -4 9 -1 9
4 0 6 -5 11 -11 11 -5 0 -7 5 -4 11 8 12 8 12 25 -20z m0 -160 c7 -13 7 -21 2
-17 -6 4 -10 -2 -9 -14 1 -11 4 -20 7 -20 4 0 7 -7 7 -15 0 -8 -4 -12 -9 -9
-5 4 -8 0 -6 -8 2 -7 -1 -13 -7 -13 -5 0 -9 2 -8 5 1 3 5 14 9 24 6 15 4 17
-7 11 -12 -7 -12 -6 -1 7 10 13 10 17 -3 22 -9 3 -13 10 -10 16 4 6 11 8 16 5
5 -4 9 -1 9 4 0 6 -5 11 -11 11 -5 0 -7 5 -4 11 8 12 8 12 25 -20z"/>
<path d="M3278 3491 c8 -4 13 -11 13 -15 -3 -17 0 -26 7 -25 20 3 32 -2 26
-13 -4 -7 -3 -8 5 -4 7 5 2 17 -18 37 -16 16 -33 29 -38 29 -4 0 -2 -4 5 -9z"/>
<path d="M3376 3402 c-3 -5 3 -22 14 -39 12 -20 15 -34 8 -41 -6 -6 2 -17 24
-33 18 -13 27 -16 21 -8 -7 9 -9 19 -5 23 4 4 0 6 -8 4 -8 -1 -16 4 -16 12 -1
8 -3 20 -4 25 -1 6 -2 13 -1 18 0 4 -3 7 -9 7 -5 0 -10 5 -10 11 0 5 6 7 13 3
8 -5 8 -2 -2 9 -15 19 -18 20 -25 9z"/>
<path d="M3400 3191 c-8 -9 -15 -25 -15 -36 0 -11 -6 -19 -12 -17 -7 1 -12 -4
-10 -10 1 -7 -3 -12 -10 -11 -7 2 -10 -7 -7 -22 3 -17 0 -25 -10 -25 -9 0 -20
-9 -26 -20 -6 -11 -17 -20 -25 -20 -8 0 -15 -5 -15 -11 0 -5 4 -8 8 -5 5 3 9
-1 9 -9 0 -9 -5 -15 -11 -14 -29 3 -38 -1 -28 -13 6 -7 11 -16 11 -20 1 -5 3
-8 6 -8 3 0 8 0 13 0 4 0 18 16 31 35 13 20 26 33 29 30 3 -2 11 3 18 13 9 12
9 21 2 29 -7 9 -7 13 2 13 8 0 10 3 7 7 -10 10 31 35 45 27 7 -5 8 -3 2 7 -19
31 -10 51 13 28 7 -7 13 -7 17 -1 3 5 -1 15 -9 22 -7 6 -12 17 -9 25 8 20 -9
24 -26 6z m17 -8 c-4 -3 1 -16 10 -27 18 -21 18 -21 -4 -2 -20 16 -23 36 -6
36 4 0 3 -3 0 -7z m-27 -63 c-6 -11 -13 -20 -16 -20 -2 0 0 9 6 20 6 11 13 20
16 20 2 0 0 -9 -6 -20z m-37 -76 c-2 -5 -7 -10 -13 -10 -5 -1 -15 -2 -21 -3
-5 0 -8 -5 -5 -10 3 -5 -3 -20 -13 -32 -16 -20 -22 -22 -33 -11 -11 11 -10 12
4 7 17 -7 44 26 31 38 -3 4 2 9 11 13 9 3 14 10 11 14 -3 5 3 7 12 6 10 -2 17
-7 16 -12z"/>
<path d="M4358 3423 c6 -3 12 -11 12 -18 0 -8 4 -16 8 -19 4 -2 8 5 8 18 0 15
-6 22 -20 23 -12 1 -15 -1 -8 -4z"/>
<path d="M1687 2849 c13 -12 31 -15 30 -4 -1 5 -10 10 -20 10 -10 1 -14 -2
-10 -6z"/>
<path d="M1701 2771 c-9 -6 -10 -11 -2 -15 6 -4 11 -1 11 6 0 9 3 9 10 -2 6
-9 10 -10 10 -3 0 17 -14 23 -29 14z"/>
<path d="M1691 2680 c18 -35 20 -52 4 -46 -17 6 -13 -20 5 -37 9 -8 11 -8 6 0
-3 6 -1 15 5 18 5 4 8 13 5 20 -3 8 -2 15 2 17 4 2 -4 14 -17 28 l-24 25 14
-25z"/>
<path d="M1694 2436 c0 -15 6 -22 21 -23 11 -1 14 1 8 4 -7 3 -13 11 -13 18 0
8 -4 16 -8 19 -4 2 -8 -5 -8 -18z"/>
<path d="M2867 2799 c7 -7 15 -10 18 -7 3 3 -2 9 -12 12 -14 6 -15 5 -6 -5z"/>
<path d="M1687 1889 c13 -12 31 -15 30 -4 -1 5 -10 10 -20 10 -10 1 -14 -2
-10 -6z"/>
<path d="M1701 1811 c-9 -6 -10 -11 -2 -15 6 -4 11 -1 11 6 0 9 3 9 10 -2 6
-9 10 -10 10 -3 0 17 -14 23 -29 14z"/>
<path d="M1691 1720 c18 -35 20 -52 4 -46 -17 6 -13 -20 5 -37 9 -8 11 -8 6 0
-3 6 -1 15 5 18 5 4 8 13 5 20 -3 8 -2 15 2 17 4 2 -4 14 -17 28 l-24 25 14
-25z"/>
<path d="M1694 1476 c0 -15 6 -22 21 -23 11 -1 14 1 8 4 -7 3 -13 11 -13 18 0
8 -4 16 -8 19 -4 2 -8 -5 -8 -18z"/>
<path d="M1685 1421 c-6 -11 29 -33 38 -24 11 11 -3 22 -20 16 -11 -4 -14 -3
-9 5 4 7 5 12 2 12 -3 0 -7 -4 -11 -9z"/>
<path d="M1704 1332 c-19 -12 -12 -38 10 -39 12 -1 15 1 9 4 -7 3 -13 12 -13
21 0 15 2 15 10 2 6 -9 10 -10 10 -3 0 16 -13 23 -26 15z"/>
<path d="M2716 1488 c3 -5 10 -6 15 -3 13 9 11 12 -6 12 -8 0 -12 -4 -9 -9z"/>
<path d="M3995 1330 c1 -16 5 -33 9 -37 4 -5 7 -3 6 2 -1 6 -2 16 -1 24 1 11
4 11 19 0 9 -7 6 -1 -7 14 -14 15 -25 27 -26 27 -1 0 -1 -13 0 -30z"/>
<path d="M935 1010 c-2 -4 5 -16 18 -26 12 -10 19 -15 15 -10 -4 5 -3 15 3 23
6 7 10 13 8 14 -31 6 -40 6 -44 -1z m35 -6 c0 -8 -19 -13 -24 -6 -3 5 1 9 9 9
8 0 15 -2 15 -3z"/>
<path d="M241 144 c29 -30 50 -37 65 -22 3 4 -4 12 -16 18 -15 8 -20 8 -16 1
4 -6 3 -11 -2 -11 -12 0 -43 35 -37 42 3 2 -2 5 -10 5 -11 0 -6 -11 16 -33z"/>
<path d="M341 93 c16 -26 25 -29 35 -10 4 6 3 9 -1 4 -5 -4 -17 1 -28 10 -19
18 -19 17 -6 -4z"/>
<path d="M450 39 c0 -5 5 -7 10 -4 6 3 10 8 10 11 0 2 -4 4 -10 4 -5 0 -10 -5
-10 -11z"/>
<path d="M547 36 c-4 -10 -1 -13 8 -9 8 3 12 9 9 14 -7 12 -11 11 -17 -5z"/>
<path d="M1099 33 c-13 -16 -12 -17 4 -4 9 7 17 15 17 17 0 8 -8 3 -21 -13z"/>
<path d="M1175 40 c3 -5 8 -10 11 -10 2 0 4 5 4 10 0 6 -5 10 -11 10 -5 0 -7
-4 -4 -10z"/>
<path d="M1257 37 c-3 -8 3 -14 15 -14 16 -2 17 1 8 13 -15 17 -17 17 -23 1z"/>
<path d="M1830 39 c0 -10 27 -19 34 -12 12 12 5 22 -14 20 -11 -1 -20 -4 -20
-8z"/>
<path d="M1953 34 c0 -7 8 -12 17 -11 9 0 17 7 17 13 0 7 -8 12 -17 11 -9 0
-17 -7 -17 -13z"/>
<path d="M2022 37 c-8 -10 -6 -13 8 -14 13 -1 17 3 13 13 -6 17 -8 17 -21 1z"/>
<path d="M3490 39 c0 -5 5 -7 10 -4 6 3 10 1 10 -4 0 -6 5 -11 11 -11 8 0 8 5
-1 15 -14 17 -30 20 -30 4z"/>
<path d="M3659 33 c-13 -16 -12 -17 4 -4 16 13 21 21 13 21 -2 0 -10 -8 -17
-17z"/>
<path d="M3706 35 c-2 -7 5 -11 17 -10 11 1 23 7 25 13 4 14 -36 11 -42 -3z"/>
<path d="M1704 4453 c4 -7 4 -19 0 -25 -10 -16 -13 -48 -4 -53 3 -2 12 0 20 6
12 7 12 9 1 9 -11 0 -11 3 -1 15 10 12 10 15 -1 15 -11 0 -11 2 -1 9 10 6 9
11 -4 22 -12 9 -15 10 -10 2z"/>
<path d="M1696 4353 c-11 -11 -7 -20 9 -20 8 0 15 4 15 8 0 11 -16 20 -24 12z"/>
<path d="M4015 4311 c3 -6 -3 -14 -12 -20 -10 -6 -12 -11 -5 -11 22 0 27 2 24
12 -1 5 2 7 8 3 6 -4 7 -13 1 -23 -10 -20 -3 -45 9 -37 5 3 14 -4 20 -15 6
-11 15 -18 19 -15 5 3 11 -2 15 -10 7 -20 35 -8 33 15 -1 10 -4 18 -7 18 -18
-2 -30 3 -26 11 3 4 -12 25 -34 45 -38 35 -58 46 -45 27z m61 -73 c-7 -5 -6
-8 3 -8 8 0 12 -3 8 -6 -3 -4 -17 3 -31 13 -19 15 -22 23 -14 31 9 9 16 7 28
-6 12 -12 14 -19 6 -24z m39 -27 c3 -5 2 -12 -3 -15 -5 -3 -9 1 -9 9 0 17 3
19 12 6z"/>
<path d="M4050 4261 c0 -6 4 -13 10 -16 6 -3 7 1 4 9 -7 18 -14 21 -14 7z"/>
<path d="M1703 4285 c0 -7 6 -11 14 -8 7 3 13 6 13 8 0 2 -6 5 -13 8 -8 3 -14
-1 -14 -8z"/>
<path d="M1704 4212 c-19 -12 -12 -38 10 -39 12 -1 15 1 9 4 -7 3 -13 11 -13
18 0 7 6 16 13 18 6 3 8 6 2 6 -5 0 -15 -3 -21 -7z"/>
<path d="M4335 3760 c-4 -6 -11 -7 -17 -4 -7 4 -8 2 -4 -4 7 -12 36 -5 36 9 0
12 -7 11 -15 -1z"/>
<path d="M4339 3659 c-6 -13 -7 -19 -1 -15 6 3 12 0 15 -6 2 -8 8 -9 13 -4 5
5 4 11 -3 13 -7 3 -13 9 -13 14 0 6 5 7 12 3 7 -4 8 -3 4 4 -10 16 -14 15 -27
-9z"/>
<path d="M1701 3651 c-10 -6 -9 -10 3 -14 8 -3 18 -2 21 3 8 13 -9 20 -24 11z"/>
<path d="M1705 3572 c-16 -11 -17 -39 -1 -39 8 0 13 10 12 24 0 12 -1 23 -1
23 0 0 -4 -4 -10 -8z"/>
<path d="M4350 3563 c0 -17 14 -23 29 -14 9 6 10 11 2 15 -6 4 -11 1 -11 -6 0
-9 -3 -9 -10 2 -6 9 -10 10 -10 3z"/>
<path d="M1706 3486 c3 -8 1 -17 -5 -20 -6 -4 -8 -13 -5 -21 4 -9 -3 -18 -17
-24 -13 -5 -18 -10 -11 -10 6 -1 12 -6 12 -12 0 -5 -3 -8 -8 -5 -4 2 -7 -58
-7 -135 1 -125 3 -140 20 -153 11 -7 26 -11 34 -8 11 4 11 7 3 10 -10 3 -10 7
-1 18 9 11 9 14 0 14 -6 0 -14 -7 -17 -15 -4 -11 -9 -11 -18 -3 -10 9 -9 15 3
28 10 10 19 12 23 6 4 -6 10 -7 15 -3 8 8 -16 28 -27 22 -3 -1 -10 3 -17 10
-10 10 -9 15 5 21 9 4 21 6 25 5 5 -1 6 8 2 19 -4 13 -2 20 6 20 7 0 10 3 6 6
-6 7 -39 -10 -38 -19 3 -19 0 -27 -10 -27 -6 0 -7 5 -2 13 4 6 8 17 9 22 6 32
11 41 29 52 l20 13 -20 -3 c-11 -1 -25 -6 -31 -9 -6 -4 -11 -1 -11 7 0 7 8 12
17 10 9 -2 23 1 31 6 13 8 10 10 -16 9 -3 0 -11 5 -19 12 -11 11 -11 15 3 24
9 7 20 10 25 7 5 -3 6 0 4 8 -3 8 -12 13 -19 11 -8 -1 -3 7 10 18 13 11 18 20
11 20 -10 0 -10 3 -1 14 9 11 9 15 -1 19 -10 4 -10 6 0 6 17 1 15 18 -2 24
-10 4 -13 1 -10 -7z m-16 -106 c0 -5 -5 -10 -11 -10 -5 0 -7 5 -4 10 3 6 8 10
11 10 2 0 4 -4 4 -10z m0 -221 c0 -5 -4 -9 -8 -9 -5 0 -9 7 -9 15 0 8 4 12 9
9 4 -3 8 -9 8 -15z"/>
<path d="M4355 3480 c-8 -13 9 -20 24 -11 10 6 9 10 -3 14 -8 3 -18 2 -21 -3z"/>
<path d="M4341 3136 c-15 -17 -1 -28 19 -15 11 6 12 9 2 9 -7 0 -10 5 -7 10 9
15 -1 12 -14 -4z"/>
<path d="M4339 3073 c-13 -16 -12 -17 4 -4 16 13 21 21 13 21 -2 0 -10 -8 -17
-17z"/>
<path d="M1696 3073 c-11 -11 -7 -20 9 -20 8 0 15 4 15 8 0 11 -16 20 -24 12z"/>
<path d="M1703 3005 c0 -7 6 -11 14 -8 7 3 13 6 13 8 0 2 -6 5 -13 8 -8 3 -14
-1 -14 -8z"/>
<path d="M4306 3002 c-2 -4 4 -8 14 -8 10 0 16 4 14 8 -3 4 -9 8 -14 8 -5 0
-11 -4 -14 -8z"/>
<path d="M1704 2932 c-19 -12 -12 -38 10 -39 12 -1 15 1 9 4 -7 3 -13 11 -13
18 0 7 6 16 13 18 6 3 8 6 2 6 -5 0 -15 -3 -21 -7z"/>
<path d="M4277 2910 c-13 -12 -15 -20 -7 -25 8 -5 8 -11 1 -19 -6 -7 -8 -16
-5 -19 11 -10 -21 -44 -39 -41 -9 1 -15 -1 -12 -6 3 -4 -6 -27 -19 -51 -14
-24 -23 -46 -21 -50 3 -4 -11 -17 -30 -30 -19 -13 -33 -28 -31 -34 2 -5 -4
-19 -13 -29 -9 -11 -11 -16 -5 -13 15 9 27 -20 12 -29 -7 -5 -8 -2 -3 6 6 10
4 11 -6 4 -8 -5 -21 -9 -30 -9 -9 0 -30 -15 -48 -34 -20 -21 -25 -31 -14 -27
16 5 16 4 3 -7 -23 -19 -41 -57 -34 -69 4 -7 3 -8 -4 -4 -7 4 -12 1 -12 -6 0
-9 -3 -9 -10 2 -5 8 -10 20 -10 25 0 6 4 4 9 -3 6 -11 10 -10 15 4 11 28 0 27
-30 -2 -23 -21 -25 -26 -9 -21 17 6 18 5 4 -5 -8 -7 -19 -22 -23 -33 -5 -13
-10 -15 -13 -8 -4 10 -9 10 -26 1 -12 -7 -25 -11 -29 -10 -5 1 -8 -2 -8 -8 0
-5 -1 -13 -2 -17 -4 -13 -61 -58 -70 -56 -4 2 -8 -1 -8 -6 0 -5 -11 -8 -24 -5
-15 2 -30 -4 -42 -18 -12 -13 -13 -18 -4 -13 23 14 43 15 57 3 10 -8 13 -6 13
6 0 12 7 15 25 12 15 -3 24 0 22 7 -1 7 8 11 20 11 15 -1 20 3 15 14 -4 12 -1
14 13 8 11 -4 17 -4 13 -1 -10 11 24 44 39 38 9 -4 11 0 7 11 -4 12 -2 15 9
11 8 -4 17 1 21 10 3 9 11 13 16 10 6 -4 9 -3 8 2 -3 10 64 79 74 75 4 -1 7 2
6 6 -2 4 11 21 27 37 17 15 22 26 13 22 -9 -3 -21 0 -27 7 -8 10 -2 12 29 11
31 -1 41 3 46 17 3 10 14 23 25 28 10 6 19 19 19 30 0 10 7 23 16 28 9 5 17
13 17 18 1 5 5 8 9 7 9 -3 -1 27 -15 45 -6 8 -6 12 2 12 7 0 9 5 5 12 -4 7 -3
8 5 4 6 -4 9 -12 6 -17 -4 -5 -1 -17 4 -26 8 -15 11 -15 12 -3 1 8 1 18 0 23
0 4 6 7 15 7 8 0 12 5 9 10 -4 6 -10 8 -14 6 -11 -7 -36 12 -28 21 5 4 12 1
18 -7 7 -11 8 -8 5 11 -4 27 13 34 31 14 4 -4 3 -6 -2 -2 -6 3 -12 -4 -12 -15
-3 -30 16 -8 23 26 3 20 1 25 -7 20 -8 -4 -9 -3 -5 5 6 9 11 9 22 0 20 -16 18
5 -2 25 -18 19 -4 22 15 4 9 -9 12 -9 7 -1 -3 6 0 14 6 16 8 3 6 6 -5 6 -18 1
-21 30 -3 42 4 4 4 9 0 11 -5 3 -17 -3 -27 -12z m-93 -231 c-9 -10 -13 -19 -9
-19 4 0 1 -8 -8 -18 -10 -10 -15 -21 -12 -24 3 -3 -5 -13 -17 -24 -22 -19 -22
-19 -8 0 17 21 17 26 0 36 -8 5 0 17 24 35 20 15 33 32 29 38 -4 6 -1 7 6 3 9
-6 8 -13 -5 -27z m-133 -166 c7 -10 10 -15 5 -11 -4 3 -22 -8 -39 -26 -18 -18
-22 -20 -9 -5 13 14 22 30 21 35 -5 28 4 30 22 7z m-101 -106 c0 -2 -10 -12
-22 -23 l-23 -19 19 23 c18 21 26 27 26 19z m-82 -64 c-12 -12 -26 -23 -32
-23 -6 0 -4 5 4 10 13 8 13 10 1 10 -11 0 -10 3 3 13 32 23 49 16 24 -10z
m-51 -38 c0 -8 -3 -13 -5 -10 -3 3 -15 -3 -26 -12 -15 -13 -14 -10 3 10 29 32
28 31 28 12z"/>
<path d="M4145 2649 c-11 -16 -1 -19 13 -3 7 8 8 14 3 14 -5 0 -13 -5 -16 -11z"/>
<path d="M1701 2371 c-10 -6 -9 -10 3 -14 8 -3 18 -2 21 3 8 13 -9 20 -24 11z"/>
<path d="M1705 2292 c-16 -11 -17 -39 -1 -39 8 0 13 10 12 24 0 12 -1 23 -1
23 0 0 -4 -4 -10 -8z"/>
<path d="M857 2226 c-3 -8 1 -20 8 -26 8 -7 13 -16 10 -20 -3 -4 2 -14 11 -21
14 -12 14 -14 -2 -26 -10 -7 -12 -13 -6 -13 7 0 15 0 19 0 4 0 8 25 10 56 1
31 -1 54 -4 51 -3 -4 -14 -2 -23 3 -13 7 -20 6 -23 -4z m41 -24 c5 -17 -13
-15 -27 2 -10 12 -9 14 5 12 10 -2 20 -8 22 -14z"/>
<path d="M1705 2209 c4 -5 3 -15 -2 -22 -10 -15 -11 -53 0 -49 4 1 13 2 20 2
9 0 8 3 -2 9 -10 6 -10 10 -1 16 9 6 9 10 -1 16 -10 6 -11 9 -1 9 17 0 15 17
-4 24 -9 3 -12 2 -9 -5z"/>
<path d="M3606 2212 c-3 -5 1 -9 9 -9 8 0 12 4 9 9 -3 4 -7 8 -9 8 -2 0 -6 -4
-9 -8z"/>
<path d="M3513 2155 c0 -7 10 -18 21 -25 17 -10 19 -10 9 1 -7 7 -13 17 -13
22 0 4 6 5 13 1 6 -4 8 -3 4 1 -12 14 -34 14 -34 0z"/>
<path d="M1696 2113 c-11 -11 -7 -20 9 -20 8 0 15 4 15 8 0 11 -16 20 -24 12z"/>
<path d="M3520 2095 c6 -8 9 -19 5 -24 -4 -7 0 -8 10 -5 14 6 14 8 -1 25 -20
22 -32 26 -14 4z"/>
<path d="M876 2082 c-2 -4 -1 -14 4 -22 5 -8 5 -19 0 -25 -5 -6 -3 -18 5 -28
8 -12 15 -14 20 -8 3 6 1 11 -5 11 -6 0 -8 5 -3 13 12 19 12 38 0 30 -6 -4 -8
0 -4 10 6 17 -8 33 -17 19z"/>
<path d="M1703 2045 c0 -7 6 -11 14 -8 7 3 13 6 13 8 0 2 -6 5 -13 8 -8 3 -14
-1 -14 -8z"/>
<path d="M3561 2028 c6 -10 14 -16 19 -13 13 8 2 32 -15 32 -10 0 -11 -5 -4
-19z"/>
<path d="M1704 1972 c-19 -12 -12 -38 10 -39 12 -1 15 1 9 4 -7 3 -13 11 -13
18 0 7 6 16 13 18 6 3 8 6 2 6 -5 0 -15 -3 -21 -7z"/>
<path d="M3645 1899 c-4 -6 -3 -15 3 -21 6 -6 11 -4 15 6 7 18 -9 31 -18 15z"/>
<path d="M870 1896 c0 -2 7 -7 16 -10 8 -3 12 -2 9 4 -6 10 -25 14 -25 6z"/>
<path d="M875 1851 c-3 -5 -2 -12 3 -15 5 -3 9 1 9 9 0 17 -3 19 -12 6z"/>
<path d="M3755 1810 c-3 -5 -4 -10 0 -10 3 0 1 -9 -5 -20 -9 -16 -8 -18 5 -14
8 4 15 17 15 30 0 26 -5 30 -15 14z"/>
<path d="M928 1754 c-4 -3 -14 -7 -25 -8 -10 -2 -18 -7 -18 -12 0 -5 -4 -15
-9 -22 -9 -16 12 -45 29 -38 6 2 12 -2 12 -10 0 -8 -6 -13 -12 -10 -7 2 -18 1
-25 -4 -10 -6 -8 -10 6 -18 11 -5 23 -9 28 -9 5 1 10 -8 11 -19 1 -15 -4 -21
-14 -19 -9 1 -20 -3 -24 -9 -6 -7 -7 -6 -4 4 2 8 9 14 15 13 5 -1 13 5 16 14
6 14 4 14 -16 1 -32 -22 -30 -43 5 -41 15 1 27 -2 27 -7 0 -5 -8 -7 -18 -5
-10 2 -25 -1 -33 -6 -8 -5 -12 -9 -9 -10 3 0 13 -2 23 -4 9 -2 17 1 17 6 0 6
5 7 11 3 6 -3 7 -9 3 -13 -15 -10 -17 -44 -3 -35 8 4 10 3 5 -5 -6 -9 -11 -9
-22 0 -11 9 -12 14 -3 19 8 6 8 9 0 14 -6 4 -11 4 -12 -1 0 -4 -2 -16 -4 -25
-2 -9 3 -23 11 -29 12 -10 12 -14 2 -20 -10 -7 -10 -9 2 -9 9 -1 6 -6 -10 -16
-14 -8 -17 -13 -8 -10 22 7 33 -11 18 -29 -6 -8 -9 -18 -7 -23 3 -4 2 -14 -3
-22 -6 -10 -3 -21 7 -32 13 -15 13 -18 2 -18 -11 0 -11 -2 1 -10 11 -7 11 -10
2 -10 -7 0 -11 -4 -8 -9 3 -5 0 -14 -8 -20 -18 -15 -16 -28 14 -76 13 -22 24
-42 25 -45 0 -3 4 -10 8 -17 4 -6 1 -18 -8 -26 -13 -13 -13 -16 1 -21 8 -3 13
-2 9 3 -3 5 7 14 22 19 21 8 23 11 9 11 -11 1 -16 4 -13 7 3 4 2 15 -3 25 -7
12 -6 19 3 22 7 3 4 6 -6 6 -10 1 -15 6 -12 11 4 6 12 7 18 3 8 -5 8 -2 0 9
-7 8 -9 19 -5 23 4 5 1 5 -5 1 -7 -4 -13 -2 -13 4 0 6 -5 8 -11 4 -8 -5 -8 -9
1 -14 8 -5 8 -9 -3 -13 -11 -4 -15 0 -12 14 2 10 -1 19 -7 19 -7 0 -7 4 1 13
6 8 8 17 4 21 -4 4 1 4 12 0 11 -5 14 -9 7 -12 -16 -5 -15 -19 2 -19 10 0 13
18 12 79 0 43 -4 78 -8 78 -8 0 -12 -16 -9 -33 1 -5 -2 -6 -7 -3 -15 9 -6 51
9 49 21 -4 21 299 0 308 -8 3 -15 13 -17 23 -2 12 2 16 12 12 8 -3 14 1 14 10
0 9 5 12 12 8 7 -4 8 -3 4 4 -8 14 -10 14 -18 6z m-32 -54 c0 -12 -4 -16 -9
-11 -5 5 -6 14 -3 20 10 15 12 14 12 -9z m28 -239 c-2 -3 -12 3 -22 13 -16 17
-16 18 5 5 12 -7 20 -15 17 -18z m3 -31 c-1 -21 -10 -18 -13 5 -1 8 2 15 6 15
5 0 8 -9 7 -20z m-3 -129 c-2 -3 -12 3 -22 13 -16 17 -16 18 5 5 12 -7 20 -15
17 -18z m3 -31 c-1 -21 -10 -18 -13 5 -1 8 2 15 6 15 5 0 8 -9 7 -20z m4 -103
c-6 -8 -9 -17 -6 -21 3 -3 -1 -1 -7 4 -10 9 -10 13 2 20 21 13 24 12 11 -3z"/>
<path d="M3763 1727 c0 -7 9 -13 19 -13 10 0 18 1 18 3 0 1 -8 7 -18 12 -13 7
-19 6 -19 -2z"/>
<path d="M918 1703 c7 -3 16 -2 19 1 4 3 -2 6 -13 5 -11 0 -14 -3 -6 -6z"/>
<path d="M3820 1637 c0 -10 7 -20 15 -23 8 -4 15 -10 15 -16 0 -5 -5 -6 -12
-2 -7 4 -8 3 -4 -5 6 -9 11 -9 22 0 11 9 12 14 4 19 -7 4 -11 10 -11 14 1 3
-2 6 -5 5 -4 0 -11 5 -15 13 -7 10 -9 9 -9 -5z"/>
<path d="M3869 1563 c-13 -16 -12 -17 4 -4 9 7 17 15 17 17 0 8 -8 3 -21 -13z"/>
<path d="M3915 1540 c-4 -6 -12 -7 -18 -3 -8 5 -8 2 0 -9 7 -8 10 -18 6 -22
-4 -4 1 -4 12 0 14 6 17 4 12 -9 -3 -8 1 -21 9 -27 17 -15 19 -34 2 -24 -9 6
-9 3 0 -9 8 -9 11 -21 8 -26 -4 -6 2 -15 13 -20 15 -8 19 -8 17 4 -1 8 -5 18
-9 21 -9 9 13 35 24 28 5 -3 6 2 3 11 -4 11 -10 12 -18 6 -8 -7 -12 -4 -13 10
-1 12 2 17 10 12 7 -3 5 2 -4 13 -9 10 -19 27 -22 37 -7 19 -22 22 -32 7z m22
-7 c-4 -3 1 -15 10 -27 18 -20 18 -20 -8 0 -18 12 -23 21 -15 26 14 10 21 10
13 1z m14 -60 c13 -16 12 -17 -3 -4 -17 13 -22 21 -14 21 2 0 10 -8 17 -17z"/>
<path d="M2598 1478 c-15 -28 -16 -49 -3 -67 5 -7 10 -27 10 -43 1 -26 -1 -28
-12 -12 -9 12 -10 21 -2 30 17 20 -11 29 -29 9 -11 -12 -12 -15 -3 -10 11 6
13 4 8 -9 -4 -10 -1 -19 7 -22 7 -3 12 -13 11 -22 -2 -26 -16 -52 -24 -47 -12
7 -10 -28 2 -43 6 -7 15 -11 22 -8 6 2 12 -2 12 -10 0 -8 -5 -14 -11 -13 -30
4 -38 -1 -27 -14 6 -8 8 -17 4 -21 -16 -16 -11 -46 10 -61 12 -8 22 -23 22
-32 0 -9 5 -18 10 -20 7 -2 10 39 10 112 0 63 -3 115 -7 115 -8 0 -12 -17 -9
-34 1 -5 -6 -3 -15 5 -16 13 -17 12 -10 -6 5 -15 4 -17 -5 -8 -13 13 -3 37 12
27 6 -3 9 2 7 12 -2 12 2 18 12 17 12 -2 15 9 14 55 -1 64 -5 84 -19 94 -6 5
-5 8 2 8 7 0 17 9 23 20 7 13 7 20 1 20 -6 0 -16 -10 -23 -22z m-3 -296 c-3
-3 0 -11 6 -19 9 -9 8 -13 0 -13 -6 0 -11 5 -11 10 0 19 -16 10 -17 -9 -1 -14
4 -19 16 -16 11 2 17 -3 17 -17 0 -17 -1 -18 -12 -3 -7 9 -16 16 -21 16 -15
-2 -11 39 6 49 10 6 11 10 4 10 -7 0 -13 5 -13 11 0 8 5 7 15 -1 9 -7 13 -15
10 -18z"/>
<path d="M2777 1436 c-3 -8 -2 -18 2 -20 5 -3 7 -24 6 -47 -2 -27 2 -42 11
-46 8 -3 11 -9 8 -14 -3 -5 1 -12 10 -15 8 -3 12 -12 9 -20 -3 -7 2 -17 11
-20 9 -3 16 -17 16 -31 0 -20 4 -23 20 -18 11 3 20 2 20 -4 0 -5 -6 -11 -14
-13 -12 -2 -11 -11 6 -47 11 -25 21 -51 22 -59 1 -7 7 -17 12 -20 5 -4 11 -16
12 -27 2 -11 8 -22 13 -25 5 -3 7 -16 5 -27 -3 -15 -1 -20 9 -17 9 4 13 -1 11
-13 -2 -12 7 -22 26 -30 16 -7 27 -17 24 -22 -3 -5 1 -12 10 -15 26 -10 28 -7
9 14 -10 11 -15 20 -10 20 4 0 2 6 -4 13 -6 8 -8 17 -4 20 10 10 -38 97 -54
97 -8 0 -12 4 -8 9 3 5 1 13 -5 16 -8 5 -7 12 2 23 11 15 11 15 -3 4 -14 -10
-18 -10 -22 2 -3 7 -1 18 5 24 8 8 7 13 -5 18 -9 3 -14 11 -10 18 3 6 1 6 -8
-1 -25 -24 -36 -7 -16 25 10 15 -1 35 -17 29 -7 -3 -12 4 -13 17 0 11 1 15 4
9 6 -18 20 -16 20 2 0 8 -3 12 -7 10 -4 -3 -15 4 -24 14 -13 14 -14 21 -5 26
8 6 5 13 -11 25 -13 10 -25 27 -27 39 -7 48 -10 57 -20 75 -9 16 -11 16 -16 2z
m50 -115 c22 -18 22 -20 4 -18 -11 0 -18 4 -15 8 2 4 -4 12 -13 18 -10 6 -14
11 -10 11 5 0 20 -9 34 -19z m28 -61 c3 -6 -1 -7 -9 -4 -18 7 -21 14 -7 14 6
0 13 -4 16 -10z m65 -130 c-7 -5 -9 -13 -5 -20 5 -8 4 -11 -3 -6 -16 10 -11
45 6 39 10 -5 11 -8 2 -13z m10 -50 c0 -5 -5 -10 -11 -10 -5 0 -7 5 -4 10 3 6
8 10 11 10 2 0 4 -4 4 -10z m30 -40 c12 -7 17 -17 13 -32 -3 -15 -2 -19 4 -11
6 9 12 7 21 -7 7 -12 8 -20 2 -20 -14 0 -8 -22 10 -39 11 -9 8 -9 -10 2 -14 8
-26 20 -26 26 -1 6 -2 16 -3 22 0 5 -6 7 -13 3 -7 -4 -8 -3 -4 5 4 6 2 18 -4
26 -7 8 -9 15 -4 15 5 0 2 5 -6 10 -20 13 -4 13 20 0z"/>
<path d="M4040 1279 c-16 -12 -18 -17 -7 -13 14 5 17 1 15 -17 -2 -16 2 -23
11 -21 8 2 11 -3 8 -11 -3 -8 0 -20 6 -26 6 -6 8 -11 4 -11 -4 0 -3 -9 3 -20
6 -11 16 -17 25 -14 10 4 13 0 11 -13 -3 -11 4 -24 15 -31 12 -8 19 -8 19 -2
0 5 5 10 11 10 8 0 8 -4 0 -13 -8 -10 -7 -17 1 -25 8 -8 9 -12 1 -12 -6 0 -14
7 -17 16 -3 8 -11 12 -17 8 -8 -5 -9 -3 -4 6 5 9 4 11 -3 6 -9 -5 -9 -13 0
-29 7 -12 12 -25 13 -29 0 -5 5 -8 10 -9 19 -1 34 -20 30 -39 -2 -10 2 -21 10
-24 21 -8 26 6 7 22 -13 11 -11 11 8 -1 14 -9 24 -21 22 -27 -1 -6 1 -9 6 -6
4 2 8 -3 8 -12 1 -9 4 -25 9 -34 4 -11 3 -18 -4 -18 -6 0 -10 3 -10 8 1 4 1
14 0 22 -1 13 -2 13 -12 0 -9 -13 -10 -13 -8 0 3 28 -1 37 -16 37 -20 0 -19
-5 11 -44 14 -18 22 -33 18 -33 -4 0 0 -8 9 -18 10 -10 14 -21 11 -24 -9 -10
27 -58 39 -51 6 4 8 0 4 -11 -4 -10 -3 -15 3 -11 6 3 10 3 11 -2 3 -39 26 -80
37 -68 10 9 11 59 2 70 -4 5 -9 15 -10 20 -1 6 -6 9 -11 7 -5 -1 -9 9 -9 22 0
14 -5 28 -10 31 -6 4 -8 11 -5 16 4 5 -1 12 -9 15 -9 3 -13 10 -10 16 3 5 -1
17 -9 26 -16 19 -31 53 -29 65 1 4 -5 7 -13 7 -11 0 -14 7 -11 25 3 14 1 23
-5 20 -5 -4 -9 -1 -9 4 0 22 -2 26 -17 44 -9 9 -12 17 -7 17 5 0 0 7 -10 15
-11 8 -17 15 -13 15 4 0 -3 18 -14 40 -12 22 -23 40 -26 40 -2 0 -2 -3 1 -8 2
-4 -2 -18 -9 -32 -13 -24 -14 -24 -12 -2 1 12 6 22 11 22 5 0 6 3 3 7 -4 3 -1
13 6 21 7 10 8 13 1 9 -7 -4 -15 1 -18 11 -3 9 -12 27 -19 39 -13 21 -13 21
-37 2z m46 -59 c1 -17 -2 -28 -5 -25 -3 4 -6 14 -6 23 0 9 -6 16 -14 14 -11
-2 -12 0 -3 11 8 9 8 18 2 25 -6 7 -2 5 7 -3 10 -9 18 -29 19 -45z m49 -67
c15 -35 15 -45 -1 -32 -8 6 -12 14 -9 17 3 3 0 11 -6 19 -7 8 -8 13 -1 13 5 0
13 -8 17 -17z m50 -91 c-3 -3 2 -16 10 -29 9 -13 13 -23 10 -23 -3 0 -7 0 -10
0 -3 0 -5 3 -6 8 -1 13 -29 23 -42 16 -6 -4 -9 -4 -5 1 4 4 2 15 -5 24 -10 14
-10 14 5 3 23 -19 43 -6 26 16 -12 15 -11 16 5 3 9 -8 15 -16 12 -19z m81
-168 c-3 -7 3 -18 12 -23 9 -6 13 -11 9 -11 -5 0 -5 -6 0 -12 12 -20 11 -55
-2 -55 -7 0 -18 9 -24 20 -7 10 -8 16 -3 13 5 -3 10 5 10 19 0 13 -3 24 -7 23
-27 -3 -33 3 -16 15 11 9 15 19 10 27 -6 9 -4 11 4 6 7 -5 10 -14 7 -22z m69
-163 c1 -33 -13 -28 -20 7 -2 12 -7 27 -11 33 -5 8 -2 9 12 1 11 -6 19 -22 19
-41z"/>
<path d="M1701 1251 c-10 -6 -9 -10 3 -14 8 -3 18 -2 21 3 8 13 -9 20 -24 11z"/>
<path d="M1696 1193 c-6 -14 -5 -15 5 -6 7 7 10 15 7 18 -3 3 -9 -2 -12 -12z"/>
<path d="M1693 1129 c-2 -23 3 -25 10 -4 4 8 3 16 -1 19 -4 3 -9 -4 -9 -15z"/>
<path d="M1652 1097 c10 -19 9 -20 -3 -10 -12 10 -15 7 -17 -18 -2 -19 1 -28
8 -24 6 3 7 12 3 18 -4 8 -1 7 9 -1 11 -9 18 -9 21 -2 3 6 4 5 3 -2 -2 -7 -8
-13 -13 -13 -6 0 -14 -3 -18 -7 -4 -4 -14 -4 -23 -1 -11 5 -14 2 -9 -10 4 -10
2 -17 -4 -17 -6 0 -8 -7 -5 -16 5 -12 2 -15 -10 -10 -13 5 -15 2 -11 -14 3
-13 0 -20 -10 -20 -8 0 -11 -5 -8 -10 4 -6 10 -8 14 -6 4 3 8 -1 8 -8 0 -11
-4 -12 -19 -3 -14 9 -20 9 -27 -1 -4 -8 -12 -13 -17 -13 -12 1 -44 -26 -44
-38 0 -6 5 -13 12 -17 7 -5 8 -3 3 6 -5 9 -2 10 12 6 24 -8 59 26 47 46 -6 10
-3 9 10 -1 13 -11 20 -11 28 -3 7 7 9 12 5 12 -4 0 3 10 15 22 15 15 18 23 9
26 -9 3 -9 7 0 18 6 8 15 11 20 8 5 -3 9 1 9 8 0 9 3 9 10 -2 5 -8 10 -10 10
-4 0 18 -12 24 -30 14 -12 -6 -17 -5 -17 5 0 7 6 11 12 9 6 -3 23 4 36 15 23
18 23 20 7 38 -12 13 -14 23 -8 29 6 6 3 10 -10 11 -18 2 -19 -1 -8 -20z
m-109 -201 c7 4 5 -1 -5 -11 -20 -22 -45 -11 -26 12 8 10 14 11 16 4 2 -6 9
-8 15 -5z"/>
<path d="M2566 1091 c-17 -7 -18 -8 -3 -14 10 -4 14 -12 11 -22 -3 -8 -9 -13
-13 -10 -12 7 -10 -28 2 -43 6 -7 15 -11 22 -8 6 2 12 -2 12 -10 0 -8 -5 -14
-11 -13 -30 4 -38 -1 -27 -14 6 -8 8 -17 4 -21 -16 -16 -11 -46 10 -61 12 -8
22 -23 22 -32 0 -9 5 -18 10 -20 7 -2 11 36 10 109 0 97 -3 115 -18 127 -10 7
-16 19 -13 27 3 8 4 14 3 13 -1 0 -11 -4 -21 -8z m31 -61 c-1 -15 -4 -17 -16
-7 -12 10 -14 9 -7 -8 5 -15 4 -17 -5 -8 -13 13 -2 36 13 27 8 -5 9 -1 5 10
-4 9 -3 15 2 11 6 -3 9 -14 8 -25z m-2 -88 c-3 -3 0 -11 6 -19 9 -9 8 -13 0
-13 -6 0 -11 5 -11 10 0 19 -16 10 -17 -9 -1 -14 4 -19 16 -16 11 2 17 -3 17
-17 0 -17 -1 -18 -12 -3 -7 9 -16 16 -21 16 -15 -2 -11 39 6 49 10 6 11 10 4
10 -7 0 -13 5 -13 11 0 8 5 7 15 -1 9 -7 13 -15 10 -18z"/>
<path d="M950 1060 c0 -5 7 -7 15 -4 8 4 15 8 15 10 0 2 -7 4 -15 4 -8 0 -15
-4 -15 -10z"/>
<path d="M2985 888 c2 -13 8 -22 14 -20 6 1 11 -9 11 -23 0 -20 4 -24 22 -22
12 2 22 11 24 20 2 18 -29 41 -40 30 -5 -6 -10 12 -7 30 0 4 -5 7 -12 7 -8 0
-13 -9 -12 -22z m58 -37 c-4 -3 -11 -10 -15 -15 -4 -4 -6 1 -5 12 1 12 6 18
15 15 7 -3 10 -9 5 -12z"/>
<path d="M2566 851 c-17 -7 -18 -8 -3 -14 10 -4 14 -12 11 -22 -3 -8 -9 -13
-13 -10 -12 7 -10 -28 2 -43 6 -7 15 -11 22 -8 6 2 12 -2 12 -10 0 -8 -5 -14
-11 -13 -30 4 -38 -1 -27 -14 6 -8 8 -17 4 -21 -17 -17 -11 -47 11 -62 14 -8
23 -21 20 -28 -3 -7 1 -18 9 -24 11 -9 13 8 13 106 -1 101 -3 119 -19 131 -10
7 -16 19 -13 27 3 8 4 14 3 13 -1 0 -11 -4 -21 -8z m31 -61 c-1 -15 -4 -17
-16 -7 -12 10 -14 9 -7 -8 5 -15 4 -17 -5 -8 -13 13 -2 36 13 27 8 -5 9 -1 5
10 -4 9 -3 15 2 11 6 -3 9 -14 8 -25z m-2 -88 c-3 -3 0 -11 6 -19 9 -9 8 -13
0 -13 -6 0 -11 5 -11 10 0 19 -16 10 -17 -9 -1 -14 4 -19 16 -16 11 2 17 -3
17 -17 0 -17 -1 -18 -12 -3 -7 9 -16 16 -21 16 -15 -2 -11 39 6 49 10 6 11 10
4 10 -7 0 -13 5 -13 11 0 8 5 7 15 -1 9 -7 13 -15 10 -18z"/>
<path d="M1204 825 c3 -20 13 -29 35 -30 12 -1 17 3 14 12 -3 7 -9 10 -14 7
-5 -3 -9 -1 -9 4 0 6 -6 12 -14 15 -8 3 -13 0 -12 -8z"/>
<path d="M3070 805 c-14 -17 -35 -21 -25 -5 3 6 -1 10 -9 10 -10 0 -13 -6 -10
-15 4 -8 11 -15 16 -15 6 0 8 -6 5 -14 -3 -8 0 -20 8 -26 7 -6 12 -21 10 -33
-4 -20 -4 -20 13 -4 14 14 14 19 4 26 -11 7 -11 9 1 14 12 5 14 -1 11 -30 -3
-20 -7 -39 -9 -43 -3 -4 2 -13 9 -20 8 -6 13 -20 11 -32 -4 -17 -2 -18 12 -6
14 11 15 9 11 -18 -3 -24 -1 -31 10 -27 9 4 13 0 11 -13 -2 -10 4 -30 13 -43
10 -13 14 -29 11 -34 -4 -6 -1 -7 7 -2 10 6 12 3 8 -13 -4 -15 -2 -19 9 -15
10 4 13 -1 9 -22 -3 -15 -2 -25 1 -21 6 5 33 -38 37 -59 1 -5 6 -17 11 -25 5
-8 10 -19 10 -24 0 -5 10 -11 23 -13 14 -2 21 1 17 7 -4 6 1 7 10 3 14 -5 14
-8 3 -15 -10 -7 -9 -8 5 -4 24 8 21 -1 -4 -15 -15 -8 -19 -8 -15 0 4 6 1 11
-7 11 -7 0 -14 -7 -14 -15 0 -8 4 -12 9 -9 4 3 8 0 8 -5 0 -22 2 -26 17 -43 9
-10 12 -18 8 -18 -4 0 0 -9 10 -20 10 -11 14 -20 10 -20 -4 0 0 -9 11 -21 10
-12 18 -23 17 -25 -2 -2 -1 -4 2 -4 3 0 8 0 11 0 4 0 1 6 -5 14 -8 10 -8 16 3
25 11 9 17 6 29 -13 12 -17 13 -26 5 -28 -9 -3 -9 -6 0 -12 7 -4 12 -2 12 4 0
6 6 8 13 4 6 -4 4 2 -5 13 -10 11 -18 23 -18 27 0 4 -11 23 -25 43 -13 20 -22
40 -19 45 3 4 -2 5 -10 2 -16 -6 -18 -1 -19 44 0 15 -10 30 -26 41 -30 19 -37
37 -20 58 7 8 8 13 3 12 -23 -4 -33 2 -29 20 2 11 -5 27 -16 36 -10 10 -16 23
-12 29 3 6 0 5 -8 -2 -12 -11 -12 -14 1 -23 13 -9 13 -10 0 -6 -9 2 -14 14
-13 26 2 12 -1 20 -6 17 -5 -3 -14 1 -21 9 -9 10 -9 15 -1 15 6 0 11 -4 11 -8
0 -4 10 -8 23 -9 l22 -2 -21 12 c-14 8 -20 20 -18 35 3 14 -2 25 -11 28 -8 4
-15 10 -15 16 0 5 5 6 12 2 7 -4 8 -3 4 5 -5 8 -12 9 -20 2 -22 -18 -38 6 -40
61 0 14 -4 24 -7 22 -3 -2 -15 3 -25 11 -19 15 -19 15 0 30 11 8 14 15 8 15
-7 0 -12 5 -12 11 0 5 6 7 13 3 6 -4 4 2 -6 14 -11 11 -16 25 -13 30 3 5 -1
15 -9 22 -8 7 -12 16 -9 21 9 15 -3 10 -16 -6z m14 -46 c-18 -20 -40 -16 -27
4 4 7 8 15 9 20 1 4 2 10 3 13 0 4 8 1 16 -6 14 -12 14 -15 -1 -31z m50 -125
c2 -6 -2 -11 -10 -11 -8 0 -12 3 -9 5 3 3 -3 14 -12 25 -18 19 -17 19 4 6 13
-7 25 -19 27 -25z m74 -98 c-2 -1 -10 -7 -19 -14 -13 -10 -19 -9 -30 5 -12 14
-12 16 0 8 11 -6 13 -4 8 8 -5 14 -3 15 19 5 13 -6 23 -12 22 -12z m2 -30 c0
-2 -7 -7 -16 -10 -8 -3 -12 -2 -9 4 6 10 25 14 25 6z m40 -94 c7 2 14 -4 15
-12 2 -10 -5 -16 -19 -17 -11 -1 -15 1 -8 4 9 3 7 9 -6 21 -10 10 -13 13 -6 9
7 -4 17 -6 24 -5z m20 -52 c0 -5 -4 -10 -10 -10 -5 0 -10 5 -10 10 0 6 5 10
10 10 6 0 10 -4 10 -10z m16 -43 c1 -9 -3 -20 -9 -24 -7 -3 -9 -2 -4 2 4 5 0
16 -9 26 -14 16 -14 17 2 15 9 -2 18 -10 20 -19z m51 -86 c0 -35 4 -40 21 -35
13 5 14 4 3 -4 -11 -8 -9 -11 8 -17 24 -7 27 -27 7 -44 -11 -9 -16 -9 -22 0
-4 7 -3 9 3 6 6 -4 13 -1 16 7 6 16 -1 26 -17 26 -6 0 -4 -5 4 -10 9 -6 10
-10 3 -10 -13 0 -26 17 -30 40 -1 8 -7 16 -14 19 -8 2 -7 6 2 12 10 6 11 9 2
9 -7 0 -13 4 -13 8 0 5 6 9 14 9 7 0 13 -7 13 -16z"/>
<path d="M3073 783 c4 -3 1 -13 -6 -22 -11 -14 -10 -14 5 -2 16 12 16 31 1 31
-4 0 -3 -3 0 -7z"/>
<path d="M4355 670 c-4 -6 -12 -7 -18 -3 -7 3 -4 -3 6 -14 9 -11 14 -23 10
-28 -5 -4 2 -2 14 6 19 11 20 15 8 22 -9 4 -13 12 -10 18 4 5 4 9 1 9 -3 0 -8
-5 -11 -10z"/>
<path d="M2565 610 c-11 -5 -14 -9 -7 -9 7 -1 10 -6 7 -11 -3 -6 1 -13 10 -16
10 -4 12 -10 6 -18 -5 -6 -10 -15 -11 -21 -1 -5 -11 -15 -22 -21 -11 -6 -17
-14 -12 -17 5 -3 18 2 30 12 24 20 39 67 23 76 -6 4 -8 13 -5 21 3 8 4 14 3
13 -1 0 -11 -4 -22 -9z"/>
<path d="M4402 571 c-11 -7 -11 -9 0 -14 9 -3 15 1 15 9 0 8 -1 14 -1 14 -1 0
-7 -4 -14 -9z"/>
<path d="M2560 495 c-7 -8 -15 -13 -19 -11 -4 3 -13 1 -21 -5 -13 -7 -13 -9
-1 -9 10 0 8 -7 -7 -23 -17 -18 -19 -26 -10 -35 14 -14 20 -60 7 -67 -5 -3 -6
0 -3 8 3 8 1 17 -3 20 -12 8 -31 -5 -35 -23 -2 -8 -11 -21 -20 -28 -9 -7 -15
-21 -13 -32 5 -23 -19 -44 -41 -36 -13 5 -14 3 -7 -6 5 -7 8 -19 7 -25 -1 -7
-2 -18 -3 -25 -1 -9 -4 -9 -13 0 -8 8 -18 6 -40 -9 -15 -11 -26 -24 -24 -28 3
-4 -8 -19 -24 -34 -20 -19 -31 -24 -36 -16 -4 7 -3 9 2 6 6 -3 15 2 21 12 9
14 7 17 -9 18 -11 1 -18 -1 -14 -4 3 -3 1 -12 -5 -19 -8 -10 -6 -19 5 -36 11
-15 16 -18 16 -7 0 16 39 54 47 45 3 -3 32 22 65 54 33 33 63 60 68 60 4 0 7
8 6 18 0 9 4 16 10 15 15 -3 45 30 48 52 1 9 7 20 12 23 5 4 9 14 9 22 0 8 5
14 11 13 6 -1 10 12 9 33 -2 22 2 37 10 41 8 2 11 12 8 20 -5 12 -3 14 7 8 8
-5 11 -4 6 3 -3 5 0 13 6 15 9 4 7 6 -3 6 -9 1 -22 -6 -29 -14z m-14 -40 c-19
-14 -22 -29 -3 -19 6 4 5 -1 -5 -11 -9 -9 -21 -14 -28 -10 -8 5 -5 14 9 29 12
12 18 26 14 30 -4 4 1 4 11 0 17 -7 17 -8 2 -19z m4 -49 c0 -2 -8 -10 -17 -17
-16 -13 -17 -12 -4 4 13 16 21 21 21 13z m-59 -50 c-10 -11 -8 -17 6 -25 11
-6 13 -11 5 -11 -7 0 -11 -4 -7 -9 6 -11 -12 -25 -36 -26 -19 -2 -19 29 -1 31
7 1 17 2 23 3 8 1 8 5 0 14 -8 10 -7 17 1 25 17 17 23 15 9 -2z m-51 -99 c0
-2 -10 -12 -22 -23 l-23 -19 19 23 c18 21 26 27 26 19z m-66 -65 c3 -5 -8 -18
-23 -30 -25 -18 -29 -19 -27 -4 2 9 8 18 14 18 7 1 17 2 23 3 5 0 7 6 4 11 -3
6 -4 10 -1 10 3 0 7 -4 10 -8z"/>
<path d="M2470 299 c0 -5 5 -7 10 -4 6 3 10 8 10 11 0 2 -4 4 -10 4 -5 0 -10
-5 -10 -11z"/>
<path d="M4436 501 c-3 -5 1 -11 9 -14 9 -4 12 -1 8 9 -6 16 -10 17 -17 5z"/>
<path d="M4471 57 c-6 -8 -8 -17 -4 -20 12 -13 22 -7 20 13 -2 24 -1 24 -16 7z"/>
<path d="M690 42 c0 -5 7 -9 15 -9 8 0 12 4 9 9 -3 4 -9 8 -15 8 -5 0 -9 -4
-9 -8z"/>
<path d="M796 41 c9 -9 34 -9 34 -1 0 5 -9 8 -20 7 -10 -1 -17 -3 -14 -6z"/>
<path d="M866 42 c-3 -5 1 -9 9 -9 8 0 12 4 9 9 -3 4 -7 8 -9 8 -2 0 -6 -4 -9
-8z"/>
<path d="M930 39 c0 -5 5 -7 10 -4 6 3 10 8 10 11 0 2 -4 4 -10 4 -5 0 -10 -5
-10 -11z"/>
<path d="M1370 40 c0 -5 5 -10 10 -10 6 0 10 5 10 10 0 6 -4 10 -10 10 -5 0
-10 -4 -10 -10z"/>
<path d="M1467 37 c-10 -25 8 -33 73 -33 61 0 89 12 90 38 0 9 -36 5 -46 -5
-4 -4 -14 -1 -22 6 -11 8 -14 8 -9 0 12 -20 -13 -26 -34 -7 -18 17 -20 17 -34
-2 -13 -16 -14 -16 -9 -1 7 20 -1 24 -9 4z m53 -12 c7 -9 8 -15 2 -15 -5 0
-12 7 -16 15 -7 19 -2 19 14 0z m95 6 c-9 -8 -36 -10 -30 -2 2 4 11 8 20 8 8
0 13 -3 10 -6z m-45 -11 c0 -5 -5 -10 -11 -10 -5 0 -7 5 -4 10 3 6 8 10 11 10
2 0 4 -4 4 -10z"/>
<path d="M1730 42 c0 -5 7 -9 15 -9 8 0 12 4 9 9 -3 4 -9 8 -15 8 -5 0 -9 -4
-9 -8z"/>
<path d="M3930 40 c0 -5 5 -10 10 -10 6 0 10 5 10 10 0 6 -4 10 -10 10 -5 0
-10 -4 -10 -10z"/>
<path d="M4027 37 c-10 -25 8 -33 73 -33 61 0 89 12 90 38 0 9 -36 5 -46 -5
-4 -4 -14 -1 -22 6 -11 8 -14 8 -9 0 12 -20 -13 -26 -34 -7 -18 17 -20 17 -34
-2 -13 -16 -14 -16 -9 -1 7 20 -1 24 -9 4z m53 -12 c7 -9 8 -15 2 -15 -5 0
-12 7 -16 15 -7 19 -2 19 14 0z m95 6 c-9 -8 -36 -10 -30 -2 2 4 11 8 20 8 8
0 13 -3 10 -6z m-45 -11 c0 -5 -5 -10 -11 -10 -5 0 -7 5 -4 10 3 6 8 10 11 10
2 0 4 -4 4 -10z"/>
<path d="M4290 42 c0 -5 7 -9 15 -9 8 0 12 4 9 9 -7 10 -24 10 -24 0z"/>
<path d="M4416 38 c3 -5 10 -6 15 -3 13 9 11 12 -6 12 -8 0 -12 -4 -9 -9z"/>
</g>
</svg>
