<?xml version="1.0" encoding="UTF-8" standalone="no"?>
<!-- Created with Inkscape (http://www.inkscape.org/) -->

<svg
   version="1.1"
   id="svg9"
   width="16"
   height="16"
   viewBox="0 0 16 16"
   xmlns="http://www.w3.org/2000/svg"
   xmlns:svg="http://www.w3.org/2000/svg">
  <defs
     id="defs13" />
  <g
     id="layer1"
     style="display:inline">
    <path
       style="display:inline;opacity:0.5;fill:#000000;stroke-width:0.0416667"
       d="M 1.2513969,14.774263 C 0.86257002,14.425701 0.40454118,13.299355 0.240047,12.827493 0.00615583,11.860725 -0.04227158,10.524563 -0.03520888,10.249009 L 0.02083333,8.0625 1.5416667,8.0502246 c 1.6126382,-0.013017 1.6791149,-0.00897 1.734625,0.1056658 0.019516,0.040302 0.025895,0.8193701 0.038046,1.8506206 0.021904,1.858913 0.022951,1.877084 0.1220111,2.117935 0.3843023,0.934375 1.4462931,1.121382 2.0909869,0.368203 0.3314573,-0.387235 0.1656167,-0.7607 0.1913674,-6.487579 L 5.7457743,-0.01548038 9.5,0.00293068 c 2.005185,0.00983361 3.339505,-0.00818253 3.856299,0.20546231 0.462107,0.21084491 1.090884,0.49011844 1.620568,1.12906361 0.393892,0.5318764 0.646528,0.9048196 0.775565,2.6482915 0.113704,2.2059864 -1.081097,3.8892696 -2.795302,4.4705984 -0.183237,0.06214 -0.258101,0.069845 0.155764,0.7092964 1.150971,1.7783321 2.1775,3.6706861 2.616047,4.8225481 0.100012,0.245997 0.132035,0.344011 0.194244,0.556106 0.02751,0.135674 0.07232,0.310074 0.07391,0.694148 L 16,16 14.014556,16.02323 C 12.406382,16.004407 12.317015,16.071802 12.09029,15.919364 11.922155,15.646702 11.753338,15.283846 11.463702,14.710929 11.174067,14.138016 10.639661,13.101297 10.31433,12.402339 9.6743956,11.027474 9.6496719,11.07373 9.476446,11.07373 c -0.1809987,0 -0.3157943,0.354945 -0.3279514,1.241721 -0.011548,0.84238 -0.3218066,1.625479 -0.8354971,2.463992 -0.5308637,0.55831 -0.7349942,0.764556 -1.223596,0.923579 C 6.8349543,16.025312 2.9936666,16.135768 2.6223644,15.80551 2.1393475,15.597865 1.6873031,15.227782 1.2513969,14.774263 Z M 10.630461,5.8566563 C 12.833597,5.3896787 12.094138,3.2778746 9.75,3.3421673 L 9.3125,3.3541663 9.301438,4.5828521 c -0.00608,0.6757771 -0.00198,1.2523396 0.00911,1.28125 0.028337,0.073844 0.961228,0.068581 1.319914,-0.00745 z"
       id="path353644" />
    <path
       style="display:inline;opacity:1;fill:#000000;stroke-width:0.0416667"
       d="M 2.6285486,15.459862 C 0.93857395,14.535407 0.55819599,13.028617 0.33394551,11.770083 c 0,0 -0.20371899,-3.4452297 -0.0839459,-3.5209576 0.12252895,-0.07747 2.77274449,-0.051287 2.83864819,0.028045 0.045922,0.055278 -0.011738,0.4430508 0.00499,1.9687496 0.020833,1.899913 0.09386,1.899913 0.2048274,2.136505 0.5357464,1.142255 2.0063253,1.174382 2.5908378,0.0566 C 6.0208333,12.1875 6.0208333,12.1875 6.0416667,6.2083333 L 6.0625,0.22916667 9.4647425,0.21850731 c 3.4022425,-0.0106594 4.0035045,0.16044174 4.6620495,0.70065782 0.728867,0.59790267 1.230746,1.04591257 1.3546,2.45022177 0.228583,2.5917697 -0.690264,3.9630074 -2.562159,4.8188918 C 12.670438,8.3020348 12.5,8.4110613 12.5,8.5526404 c 0,0.1063333 0.05641,0.2038342 0.716817,1.2390263 1.642753,2.5750123 2.549045,4.5132423 2.55225,5.4583333 l 0.0018,0.520833 -1.778096,0.01086 c -1.778096,0.01086 -1.778096,0.01086 -1.859559,-0.104167 C 12.001105,15.490986 11.164968,13.795979 10.516604,12.40036 9.8580417,10.982861 9.7863737,10.875 9.5030467,10.875 c -0.3678025,0 -0.5020121,-0.208539 -0.5456741,1.469213 -0.033838,1.300269 -0.8648906,2.4921 -1.4431264,2.924748 C 6.5015495,16.026684 3.4473585,15.72214 3.1482,15.662703 Z M 11.134583,5.9087 C 13.049833,4.9941337 12.164547,3.1369389 9.8319658,3.1760078 L 9.1458333,3.1875 9.1348425,4.5830371 c -0.00605,0.7675454 -0.0014,1.4205158 0.01031,1.4510454 0.055377,0.1443096 1.6328515,0.04489 1.9894305,-0.1253825 z"
       id="path353642" />
  </g>
</svg>

